<svg version="1.1" id="Layer_1" xmlns="http://www.w3.org/2000/svg" xmlns:xlink="http://www.w3.org/1999/xlink" x="0px" y="0px"
	 width="100%" viewBox="0 0 150 409" enable-background="new 0 0 150 409" xml:space="preserve">
<path fill="#000001" opacity="1.000000" stroke="none" 
	d="
M1.309961,320.284851 
	C1.000000,313.312347 1.000000,306.624725 1.000000,299.468536 
	C2.707856,296.748169 4.750652,296.807800 7.209005,297.770294 
	C13.130950,300.088837 19.195450,301.590454 25.677990,301.577423 
	C38.509632,301.551636 48.432484,296.204407 55.961166,286.014557 
	C59.312744,281.478241 63.085258,277.266205 66.076965,272.448395 
	C72.462891,262.164642 74.406746,250.932632 73.397766,238.631622 
	C74.251831,231.385284 74.251740,224.470169 75.156319,217.234192 
	C75.389565,213.674164 74.651276,210.670944 73.519737,207.391373 
	C73.178078,206.652512 72.978424,206.231949 72.661819,205.481155 
	C71.128052,201.910065 68.920044,199.180344 66.629494,196.067276 
	C65.890762,194.606552 65.875587,193.365799 65.914948,191.749725 
	C65.941666,190.892410 65.943024,190.405014 65.912773,189.559570 
	C65.720139,186.334793 64.398453,183.783203 63.603813,180.726715 
	C63.463726,179.692200 63.423866,178.995270 63.051693,178.016571 
	C62.577042,177.083679 62.249176,176.466354 61.794842,175.519470 
	C61.590042,174.717651 61.547089,174.243423 61.542191,173.401993 
	C61.701920,172.050247 61.723164,171.062607 61.532463,169.680923 
	C61.496056,168.462936 61.464035,167.639359 61.403427,166.370560 
	C59.788826,146.173447 60.261845,126.426445 61.047188,106.647835 
	C61.778103,88.239784 63.840488,70.008568 66.168518,51.759010 
	C66.992897,45.296703 70.116486,38.955833 67.944664,31.741743 
	C67.820435,29.774422 67.716011,28.263775 67.972427,26.329523 
	C71.257675,22.888342 71.948875,18.866774 72.341904,14.788952 
	C72.702652,11.046161 75.058083,7.724895 74.623657,3.422156 
	C74.857361,2.501707 75.114738,2.029670 75.729431,1.302464 
	C99.477242,1.000000 122.955139,1.086877 146.431015,0.908477 
	C150.047455,0.880994 151.109512,1.511220 151.105469,5.423108 
	C150.977051,129.302856 151.000000,253.182785 151.000000,377.531342 
	C148.700195,380.060974 146.886780,379.049042 145.821365,376.791351 
	C140.795731,366.141602 135.458694,355.608917 131.317749,344.586487 
	C129.025345,338.484558 126.752106,332.297974 125.964172,325.663635 
	C125.730354,323.694977 125.367195,320.439423 121.647400,320.716156 
	C120.861580,322.180908 120.184349,323.358063 120.126465,325.112183 
	C120.302673,327.217010 119.625267,328.800842 119.111862,330.789795 
	C118.896889,332.121887 118.938271,333.108276 118.753601,334.440918 
	C118.646492,335.283600 118.586975,335.764130 118.485970,336.602234 
	C118.220078,338.377472 117.369095,339.619293 117.233276,341.431671 
	C116.912117,343.706543 116.729530,345.643829 115.890823,347.828888 
	C115.512405,348.909180 115.309013,349.645416 115.103912,350.785583 
	C110.782539,358.707825 109.002419,367.100189 106.495605,375.635559 
	C106.425385,378.043701 104.843552,379.578705 104.655579,381.959717 
	C104.579384,384.142761 103.449226,385.703979 103.456589,387.911743 
	C100.772781,394.611084 99.665680,401.545685 95.485062,407.209229 
	C94.904289,407.996002 94.438820,408.851593 93.311234,409.715424 
	C89.638710,410.000000 86.277428,410.000000 82.458069,410.000000 
	C80.426971,408.688599 79.907616,407.242706 80.848640,405.207550 
	C82.423164,401.802399 83.349121,398.116547 85.214233,394.826538 
	C82.399284,399.999146 80.675697,405.894562 75.252968,409.755219 
	C71.307091,410.000000 67.614182,410.000000 63.460636,410.000000 
	C60.599232,407.934692 61.933788,405.770996 62.918495,403.702271 
	C66.267181,396.667175 70.014259,389.817841 73.013878,382.621399 
	C77.473946,371.921112 82.147278,361.287170 84.600250,349.490509 
	C84.744644,348.137177 84.924820,347.172852 85.451797,345.930420 
	C86.059433,344.782928 86.456993,343.935486 86.779892,342.682556 
	C87.741501,340.566772 88.605705,338.785706 88.448547,336.352722 
	C89.379608,334.365417 89.344566,332.476410 90.354500,330.516479 
	C92.013458,329.233215 92.767174,327.715973 92.600075,326.199158 
	C92.094910,321.613312 93.072372,317.154144 93.433716,312.219879 
	C94.920082,309.773132 95.853188,307.610107 95.381668,304.635406 
	C97.204826,301.406158 98.833832,298.545441 98.365219,294.674622 
	C99.814941,288.961334 99.989479,283.626984 98.053154,278.031433 
	C96.263725,279.106323 95.935219,280.627380 95.718094,282.612091 
	C96.021835,286.398651 95.657043,289.770874 94.978897,293.543488 
	C94.813965,298.092407 93.761795,302.098511 93.125809,306.555237 
	C91.582581,311.703125 91.911758,316.903839 89.232933,321.755432 
	C87.291924,335.082611 81.603424,346.686951 76.165298,358.327942 
	C68.897011,373.886597 60.543163,388.848755 50.444874,402.799988 
	C48.675648,405.244263 47.028450,407.701874 44.270519,409.734253 
	C30.593084,410.000000 17.185659,409.941498 3.779757,410.058075 
	C1.569436,410.077271 0.808190,409.806946 0.918562,407.313568 
	C1.174493,401.531769 1.000000,395.730957 1.000000,389.468933 
	C6.195680,380.378479 15.397131,376.626251 23.162758,371.281311 
	C32.213791,365.051697 41.278194,359.041870 47.973751,350.121338 
	C48.972755,348.790344 50.073936,347.554840 50.625816,345.571655 
	C50.952171,344.308502 51.255829,343.415863 52.130692,342.422302 
	C55.048477,339.098724 57.123032,335.624146 59.228386,331.784668 
	C59.498096,330.707001 60.119442,330.260742 60.236862,329.868530 
	C59.271446,330.368744 58.810558,331.591766 58.325268,333.213440 
	C55.828693,336.473572 53.289124,339.263672 50.928772,342.647797 
	C50.055866,343.871094 49.124443,344.566559 48.150223,345.715210 
	C47.316113,346.401184 46.704342,346.780518 45.787773,347.344147 
	C43.879662,348.175751 42.228424,348.752167 41.100182,350.701233 
	C30.154718,357.720398 18.601498,362.868958 7.482214,368.825653 
	C5.660985,369.801270 3.766140,371.374786 1.277075,369.255280 
	C1.000000,358.979095 1.000000,348.958221 1.000000,338.468658 
	C2.927297,335.702179 5.492394,335.486572 8.286161,335.475677 
	C24.246119,335.413422 37.768810,328.983429 49.724960,318.961273 
	C52.131042,316.944366 54.028484,314.158752 55.883976,311.354126 
	C55.954121,311.255371 56.055416,311.145996 56.055416,311.145996 
	C56.055416,311.145996 55.898006,311.377106 55.739204,311.566284 
	C53.883686,314.700348 51.307575,316.496704 48.256084,317.935028 
	C40.248684,321.709381 32.202583,325.364410 23.060204,324.451996 
	C15.826130,323.730042 8.579685,322.891296 1.309961,320.284851 
z"/>
<path fill="#6E01BC" opacity="1.000000" stroke="none" 
	d="
M1.233504,54.235775 
	C1.000000,52.933331 1.000000,51.866661 1.000000,50.399994 
	C1.838130,49.252598 2.136479,48.416283 1.212997,47.206898 
	C1.000000,33.627491 1.316574,20.243725 0.841504,6.888115 
	C0.655948,1.671566 2.032648,-0.070775 7.502095,1.000000 
	C10.024627,2.525350 10.683814,4.784941 11.027377,7.093700 
	C14.265205,28.852072 17.499868,50.612614 18.307039,67.756325 
	C18.179913,55.231819 15.173063,38.102592 13.260730,20.869133 
	C12.752974,16.293367 11.123931,11.839187 11.572385,7.115839 
	C11.760666,5.132763 11.685694,3.086205 13.696564,1.308087 
	C16.041666,1.000000 18.083334,1.000000 20.562500,1.000000 
	C22.016171,1.937540 22.599260,3.096258 22.464348,4.478316 
	C22.146893,7.730409 23.351168,10.517932 25.066177,13.607839 
	C25.302368,14.878635 25.401287,15.744540 25.468901,17.065922 
	C23.389112,21.180429 23.160404,25.182173 23.735306,29.151176 
	C24.623064,35.280094 24.581295,41.422810 24.486254,47.567265 
	C24.402975,52.951370 25.795832,57.917397 28.144653,63.168957 
	C28.500389,65.841156 28.347279,68.082909 28.712940,70.780060 
	C24.790409,84.878258 25.961988,98.464493 29.072701,112.467102 
	C29.876646,114.230728 29.086884,115.739792 29.669786,117.475815 
	C29.687117,119.148743 30.123949,120.357269 30.432352,121.969391 
	C30.035437,125.099136 32.009293,127.597153 31.441612,130.728668 
	C31.668339,132.433090 31.966745,133.758759 32.438805,135.382797 
	C32.496925,136.150009 32.509987,136.587357 32.534904,137.345306 
	C32.670597,139.154587 33.673672,140.443466 33.581146,142.315979 
	C34.295380,143.860916 34.557896,145.174652 34.608948,146.888611 
	C34.855518,147.880203 35.057743,148.531265 35.338661,149.507614 
	C35.609474,150.489639 35.319141,151.189407 35.616364,152.163727 
	C35.798534,153.593628 36.127563,154.653625 36.421181,156.066132 
	C37.126186,164.241287 40.520473,171.308243 42.802193,178.689041 
	C43.144318,179.795731 44.361553,180.339020 45.423203,181.422821 
	C45.951584,182.407150 46.109615,183.138901 46.621872,184.110641 
	C47.318489,185.202820 47.783695,186.012909 48.146599,187.251587 
	C48.419369,188.005508 48.589748,188.430801 48.819954,189.193893 
	C48.647961,191.253952 48.632015,192.934738 50.073280,194.595139 
	C50.600803,195.113281 50.921646,195.388092 51.536758,195.808243 
	C52.394043,196.318970 52.814117,196.813507 53.306740,197.676895 
	C53.710072,198.326431 53.953499,198.690002 54.389420,199.323486 
	C55.081001,200.827957 55.778404,201.964157 56.388203,203.506836 
	C56.527000,205.721466 56.898830,207.466019 58.907501,208.820099 
	C59.819054,210.172302 61.204659,210.499893 61.972992,211.991486 
	C61.508678,216.537643 58.755638,215.795837 56.296261,214.659851 
	C50.360725,211.918213 45.514198,207.359818 42.473396,201.943741 
	C36.698833,191.658493 31.136154,181.147461 28.008623,169.606232 
	C26.927553,165.616852 24.742748,162.002350 23.882526,157.907486 
	C23.539682,156.275482 22.812710,154.720032 20.591518,153.982117 
	C19.922764,153.323090 19.698627,152.850372 19.607813,151.937439 
	C22.652004,145.565399 19.030128,140.262848 17.791756,134.737381 
	C17.518532,133.518295 16.239664,132.461975 16.878212,131.061935 
	C18.867104,126.701256 16.006491,124.720200 12.747189,122.484955 
	C12.270638,121.454361 12.090025,120.717079 11.938624,119.583504 
	C14.671316,115.174980 12.889773,110.720100 12.073757,106.904716 
	C11.314143,103.353050 10.345889,99.219604 7.244429,96.000610 
	C6.998283,94.666885 6.933049,93.683678 6.688863,92.376709 
	C5.924216,90.987381 6.073299,89.764557 5.728752,88.273880 
	C4.850502,85.686867 5.085811,83.283798 4.417109,80.649811 
	C4.081166,79.310997 3.825295,78.338638 3.520395,76.973083 
	C2.924675,74.058098 2.938799,71.507729 3.031987,68.603409 
	C2.702953,67.344254 2.914847,66.353645 2.462835,65.151093 
	C2.510504,63.915848 2.357019,63.013889 2.590208,61.805260 
	C2.492145,60.610001 2.482482,59.736366 2.190210,58.566818 
	C2.082473,58.031898 2.057931,57.814041 2.027497,57.266598 
	C2.059668,56.065044 2.255489,55.157589 1.233504,54.235775 
z"/>
<path fill="#7C01D4" opacity="1.000000" stroke="none" 
	d="
M76.232231,215.058472 
	C76.165367,222.948257 75.930473,230.457809 75.598488,238.418549 
	C74.192200,247.430771 73.332237,256.060516 70.086617,264.239746 
	C65.566666,275.630402 58.397308,284.664673 47.486034,290.442291 
	C41.081467,293.833527 34.167957,292.662048 27.440922,291.913055 
	C19.394144,291.017120 12.197702,287.410034 4.966113,284.028137 
	C3.396802,283.294250 2.424067,282.016815 1.271244,280.310364 
	C1.000000,273.978851 1.000000,267.957703 1.000000,261.468262 
	C1.778337,260.247589 2.669065,259.867249 4.098403,260.315643 
	C4.676225,260.651733 4.905619,260.855255 5.146311,261.043884 
	C5.503527,261.323792 5.488064,261.262482 4.853743,260.686340 
	C3.121389,259.104675 2.707726,257.033478 1.236395,255.239532 
	C1.000000,250.975449 1.000000,246.950912 1.000000,242.463181 
	C3.787528,240.844345 4.861989,243.310471 6.209371,244.704987 
	C12.550164,251.267624 19.379045,257.182556 27.552719,261.354401 
	C31.226831,263.229645 34.982265,265.104980 39.696918,263.622406 
	C40.981014,263.037109 42.041031,263.179260 43.388611,262.809875 
	C50.005276,263.698334 54.875019,260.363556 57.814465,255.946213 
	C63.952305,246.722336 69.537445,237.009674 71.443115,225.377670 
	C71.603218,224.248901 71.787109,223.507797 71.996162,222.372574 
	C71.939819,219.516830 72.412437,217.195404 74.113266,214.862930 
	C74.996353,214.441925 75.533340,214.458817 76.232231,215.058472 
z"/>
<path fill="#010002" opacity="1.000000" stroke="none" 
	d="
M44.204002,265.376648 
	C42.853485,265.624237 41.852154,265.730896 40.475029,265.776245 
	C25.738096,264.646301 16.243885,255.475143 7.041786,245.834045 
	C5.274756,243.982727 3.241443,242.414734 1.259947,240.260101 
	C1.000000,225.979111 1.000000,211.958206 1.000000,197.468658 
	C3.181726,195.273087 4.569236,196.505859 5.740167,198.318848 
	C7.235785,200.634567 8.626760,203.017776 10.456381,205.563782 
	C11.155926,206.424500 11.593987,207.010727 12.154373,207.938721 
	C13.001659,209.411743 13.570777,210.644974 14.670043,211.927124 
	C15.324086,212.636688 15.694768,213.153091 16.180656,213.964111 
	C16.465570,214.386078 16.580534,214.553192 16.878674,214.962570 
	C17.434612,215.687256 17.770008,216.194031 18.216976,216.992798 
	C18.893814,218.139221 19.435278,219.006775 20.452419,219.906601 
	C21.179552,220.556641 21.592192,221.060394 22.134968,221.893341 
	C26.395317,227.811279 30.551416,233.371552 36.699097,237.525162 
	C37.533127,238.071915 38.052032,238.478455 38.778305,239.140106 
	C39.657127,239.927414 40.344921,240.426361 41.467834,240.860596 
	C45.191040,244.507111 48.128891,242.793503 51.303551,240.030609 
	C52.687344,239.557129 53.812584,239.408890 55.115845,238.752335 
	C55.799610,238.007706 56.588982,237.998764 57.366138,237.440247 
	C59.925575,236.293289 62.005554,235.036774 63.041969,232.167236 
	C64.251701,231.073044 65.170677,230.165100 66.896713,230.015472 
	C67.769119,230.272324 68.202469,230.555862 68.833916,231.214020 
	C70.031921,236.065689 66.668320,239.266632 65.206642,242.996796 
	C63.961208,246.175186 62.057777,249.119232 60.885616,252.431244 
	C58.979591,257.816895 54.292301,260.557953 49.606213,263.144226 
	C48.012566,264.023804 46.287308,264.657990 44.204002,265.376648 
z"/>
<path fill="#22013E" opacity="1.000000" stroke="none" 
	d="
M44.222336,265.604065 
	C48.126247,262.220917 53.737495,260.970886 57.296089,256.533783 
	C58.781693,254.681442 59.858082,253.085541 59.717808,250.412216 
	C59.428486,244.898605 64.646698,241.659332 66.102112,236.754517 
	C66.517212,235.355591 67.371727,234.087051 68.107788,232.406662 
	C68.105385,231.534897 68.023705,231.014771 67.931137,230.434845 
	C67.711060,230.537430 67.553947,230.662460 67.149696,230.808167 
	C66.124313,231.481445 65.322495,232.105026 64.248627,232.866470 
	C63.795933,233.141495 63.615276,233.278656 63.104355,233.340973 
	C61.827187,232.664917 61.968616,231.246887 60.610294,230.568619 
	C58.580490,229.153687 56.851402,230.483231 55.105164,230.478378 
	C52.815514,230.471985 50.817547,230.348923 50.912388,226.979874 
	C52.068016,222.959045 55.317131,225.252136 57.655300,224.159271 
	C52.194973,225.619781 48.482086,222.585403 44.968872,220.275726 
	C46.266258,222.484421 50.954418,221.783112 50.911129,226.374329 
	C49.879021,229.125290 48.074932,229.194275 45.933083,228.633957 
	C43.089352,227.889999 40.960094,226.031281 38.929283,224.122528 
	C29.495161,215.255478 23.231390,204.256256 17.997478,192.588318 
	C17.032057,190.436111 17.445168,188.727264 20.121328,187.650284 
	C22.849972,187.121460 24.492020,188.353149 25.275045,190.255493 
	C27.163860,194.844376 30.004278,198.912430 31.961107,203.425323 
	C17.223139,175.377197 6.910940,145.804733 1.240463,114.274612 
	C1.000000,102.645775 1.000000,91.291542 1.000000,79.468658 
	C4.827747,78.962875 4.405831,81.968575 4.886535,84.374367 
	C8.881278,104.366997 12.245197,124.491760 17.428394,144.237000 
	C17.734804,145.404251 18.015429,146.467148 19.358473,147.477463 
	C20.041016,148.203415 20.272474,148.706833 20.367397,149.663910 
	C18.005758,153.850204 22.569977,155.040802 23.344006,158.046280 
	C23.626945,158.842972 23.815317,159.283691 24.148800,160.047028 
	C24.430214,162.152130 25.237175,163.682053 26.247305,165.527588 
	C29.883612,173.229706 31.343538,181.417984 35.419785,188.524612 
	C39.316860,195.318878 42.021469,202.869202 47.898487,208.441605 
	C49.732391,210.180450 51.593693,211.875351 53.698616,213.263046 
	C56.787395,215.299377 59.969326,216.162277 63.436359,213.960297 
	C64.791420,213.099655 66.328987,212.471741 68.392868,212.787506 
	C69.475784,213.322327 69.960114,213.906509 69.956146,214.801193 
	C70.268707,213.667465 69.318359,213.016342 68.908813,211.788818 
	C68.953560,210.659729 69.392212,210.064529 70.162125,209.230942 
	C71.716881,208.545288 72.738647,207.521606 74.540092,207.679382 
	C75.680382,209.952744 76.332893,212.067459 75.264389,214.656311 
	C74.606712,217.436111 74.202011,219.877579 73.669662,222.711517 
	C73.524506,223.571121 73.485931,224.036484 73.246536,224.800919 
	C70.949059,235.279602 67.726189,245.018585 61.677452,253.624176 
	C57.422180,259.678192 51.987347,264.078278 44.222336,265.604065 
z"/>
<path fill="#230140" opacity="1.000000" stroke="none" 
	d="
M44.468269,410.000000 
	C46.060658,402.770752 51.417664,397.526520 55.247803,391.365265 
	C68.643501,369.816498 80.041786,347.345306 87.247604,322.492554 
	C90.371132,320.234009 91.715919,321.680939 92.229454,324.632935 
	C92.548386,326.466370 92.319885,328.310760 92.173950,330.618713 
	C91.861725,332.828644 91.547150,334.568024 91.095108,336.659607 
	C90.701065,338.929626 89.909813,340.712524 89.379471,342.926758 
	C89.109558,344.239197 89.006889,345.228302 88.854477,346.587219 
	C88.389809,347.594849 87.867653,348.149750 87.318069,349.025024 
	C84.993713,361.510834 79.896767,372.751678 75.089600,384.052246 
	C71.448814,392.610901 67.147278,400.888458 63.069889,409.645569 
	C56.978848,410.000000 50.957695,410.000000 44.468269,410.000000 
z"/>
<path fill="#5E01A1" opacity="1.000000" stroke="none" 
	d="
M1.000000,280.468262 
	C7.987068,281.662720 13.799347,286.296997 20.837877,287.836914 
	C23.104443,288.332825 25.346920,288.939117 27.614176,289.431580 
	C41.985516,292.553070 52.781643,286.975922 61.293442,275.671082 
	C68.471825,266.137238 72.166855,255.270691 73.876846,243.610458 
	C74.092003,242.143356 73.995827,240.605850 75.230873,239.100769 
	C76.329887,261.385193 66.958115,279.600861 50.935947,294.472443 
	C39.468372,305.116516 25.578594,305.701447 11.140781,301.379608 
	C7.982891,300.434296 5.118951,298.518799 1.341177,298.748627 
	C1.000000,292.978851 1.000000,286.957703 1.000000,280.468262 
z"/>
<path fill="#05010B" opacity="1.000000" stroke="none" 
	d="
M55.374531,203.976257 
	C54.402435,202.655334 53.654423,201.674301 52.805145,200.399994 
	C52.811966,199.753036 52.746674,199.441254 52.225830,199.117874 
	C51.578968,198.701950 51.185757,198.346420 50.605019,197.801239 
	C49.931782,197.636139 49.626045,197.424194 49.517101,196.607910 
	C49.361729,193.957962 47.818245,192.318832 46.497498,190.209473 
	C46.154900,189.621124 45.995590,189.305298 45.783997,188.728516 
	C45.648056,187.672440 45.018463,187.139450 44.649410,186.165253 
	C44.279327,185.328415 44.013802,184.757492 43.701630,183.873108 
	C37.994015,167.459900 34.840542,150.742172 31.921595,134.011078 
	C30.856289,127.904869 29.280512,121.786186 29.417126,115.501808 
	C29.452890,113.856567 28.886063,112.465630 28.274309,110.561043 
	C25.873783,97.504425 26.066730,84.746414 25.945164,71.516945 
	C25.911819,68.986023 25.906439,66.942924 25.807793,64.471390 
	C24.390261,58.849155 24.324747,53.432709 24.226919,48.213512 
	C24.037611,38.113983 22.382963,28.085577 22.919725,17.503422 
	C22.899923,16.282190 22.920033,15.528506 22.847530,14.407610 
	C21.278337,9.989611 21.946518,5.885613 22.725445,1.392840 
	C25.041666,1.000000 27.083334,1.000000 29.562500,1.000000 
	C33.940006,4.557599 31.779707,9.415023 32.684776,14.076733 
	C31.473288,17.865576 31.506029,21.336643 31.536787,25.207916 
	C31.772198,27.641579 33.060551,29.500395 32.523052,32.044437 
	C32.410561,35.691040 33.033607,38.873253 33.481079,42.497097 
	C33.496094,43.206638 33.496101,43.493267 33.528061,44.209671 
	C33.663391,49.744484 33.228691,54.836407 33.128448,60.375309 
	C32.590115,63.759281 32.852406,66.681129 33.452240,70.043655 
	C33.214218,85.053123 34.874435,99.473022 36.601593,114.363251 
	C36.572506,115.146454 36.553364,115.453888 36.544098,116.208389 
	C36.255993,123.415573 38.343380,129.903244 39.394562,136.444855 
	C40.754982,144.910950 42.690109,153.348892 44.328304,161.809906 
	C46.474541,172.894852 50.712929,183.155960 56.608242,192.765976 
	C57.757576,194.639526 59.161011,196.446762 59.351738,199.200272 
	C59.298843,201.354935 58.228401,202.602219 56.758118,204.034042 
	C56.139496,204.270233 55.869053,204.293213 55.374531,203.976257 
z"/>
<path fill="#0B0018" opacity="1.000000" stroke="none" 
	d="
M53.208874,345.829865 
	C50.250935,353.079926 44.871174,358.029633 39.311211,362.731934 
	C29.763672,370.806610 18.746208,376.811554 8.598199,384.053802 
	C6.331084,385.671722 4.588533,388.130615 1.340102,388.914490 
	C1.000000,382.645599 1.000000,376.291199 1.000005,369.468414 
	C11.450893,363.666290 21.908115,358.344910 32.347813,352.989380 
	C34.696785,351.784393 36.984642,350.460297 39.637535,349.090576 
	C41.187126,347.833984 42.354828,346.632294 43.775364,345.239624 
	C44.510479,344.786987 45.020985,344.553955 45.762856,344.160614 
	C46.861198,343.152100 47.709743,342.285461 48.784088,341.215820 
	C51.225357,338.186737 53.449982,335.369781 55.865479,332.279694 
	C57.389835,331.178223 58.733879,330.416656 60.659389,331.663635 
	C60.247322,336.368317 57.221535,339.607849 55.174873,343.710144 
	C54.450848,344.531158 53.928162,345.078247 53.208874,345.829865 
z"/>
<path fill="#7901CF" opacity="1.000000" stroke="none" 
	d="
M42.640282,1.218933 
	C46.030594,1.000000 49.061188,1.000000 52.545891,1.000000 
	C55.161716,3.205855 54.806641,6.041605 54.333984,8.554614 
	C53.663864,12.117491 53.682766,15.678581 53.381538,19.743256 
	C51.014118,29.946115 50.840778,39.882263 50.092937,49.754887 
	C48.410503,71.965599 47.889557,94.214256 47.879875,116.481339 
	C47.879570,117.182663 48.847454,117.863655 48.028275,119.016113 
	C48.060879,121.846619 47.514248,124.304352 49.220078,126.920372 
	C49.540234,128.820908 48.667965,129.852356 47.641586,131.306427 
	C43.326733,132.984497 42.625053,130.507843 42.397270,127.471840 
	C41.612228,117.008377 41.441883,106.510582 40.513641,96.047134 
	C40.264854,93.242783 39.717522,90.829254 38.325722,87.968422 
	C38.236805,87.149300 38.251141,86.820854 38.313980,86.008514 
	C38.384960,77.987785 39.085709,70.432701 37.621887,62.476391 
	C37.378609,54.742302 37.731300,47.461609 37.311813,39.717628 
	C38.178310,35.832371 40.222233,32.574429 38.617149,28.377678 
	C38.301540,24.326294 38.740265,20.704117 38.335609,16.643631 
	C38.941814,13.196239 41.130322,10.496449 39.975983,6.736814 
	C39.434200,5.136791 39.844040,4.069892 40.595497,2.685217 
	C41.307625,2.005683 41.779240,1.698921 42.640282,1.218933 
z"/>
<path fill="#33025A" opacity="1.000000" stroke="none" 
	d="
M62.695885,232.577988 
	C63.091930,232.901245 63.268589,232.924530 63.710915,232.976059 
	C63.389153,235.594086 61.331596,236.988571 59.237717,238.774780 
	C58.442783,239.555847 57.876133,240.099380 56.981331,240.687820 
	C55.694164,241.192215 54.683159,241.594284 53.368965,242.117859 
	C49.154644,244.680588 44.928413,244.393250 40.293968,243.491425 
	C39.216404,242.919189 38.497047,242.528366 37.511288,241.983887 
	C36.493626,241.539780 35.987675,240.933273 35.206921,240.207611 
	C29.732052,235.221771 24.913857,230.018799 20.208244,224.255417 
	C19.462357,223.451508 18.919088,222.911682 18.249437,222.100616 
	C17.520748,221.056549 16.956228,220.247986 16.192410,219.221130 
	C15.458031,218.449478 14.914787,217.903793 14.262956,217.072540 
	C14.112744,216.826019 13.977958,216.437881 13.897692,216.248779 
	C13.415685,215.415283 12.879133,214.878036 12.281504,214.034943 
	C11.548634,212.687546 10.943617,211.592911 10.119577,210.273682 
	C9.423837,209.421906 8.877182,208.851013 8.355330,207.920059 
	C6.254070,204.011627 4.893756,199.968384 1.345176,197.038925 
	C1.000000,189.312424 1.000000,181.624832 1.000000,173.468628 
	C3.598234,172.139557 3.943723,174.207199 4.602270,175.806946 
	C8.588034,185.489243 13.340483,194.796234 18.393627,203.953690 
	C19.795368,206.493988 20.945732,209.320190 24.567076,210.304825 
	C25.672913,210.807816 26.149057,211.439362 26.860500,212.345215 
	C28.039371,215.261856 28.927746,217.940628 32.213596,219.227768 
	C33.341232,220.344818 34.385242,221.021805 35.551254,222.138596 
	C35.928375,222.655411 36.055893,222.878372 36.293579,223.469025 
	C36.521347,224.582199 36.285114,225.311157 36.338573,226.409393 
	C42.871456,234.354507 52.490032,236.221603 58.989010,232.647003 
	C60.143173,232.012207 61.216145,231.496185 62.695885,232.577988 
z"/>
<path fill="#35015F" opacity="1.000000" stroke="none" 
	d="
M34.167641,223.885559 
	C33.305073,223.050278 32.617195,222.648605 31.727016,222.119934 
	C28.071913,220.478073 26.455853,217.486099 25.121613,213.821121 
	C24.762436,213.212708 24.518812,212.957718 24.140125,212.589142 
	C14.202523,198.339737 6.893542,182.980286 1.263165,166.333984 
	C1.000000,156.979111 1.000000,147.958206 1.000000,138.468658 
	C3.576556,137.426559 3.460740,139.675323 3.990886,141.020309 
	C8.575100,152.650543 11.917454,164.700150 16.052364,176.888123 
	C17.210043,180.684631 17.608948,184.477310 21.639305,186.599609 
	C21.943302,187.437042 21.928997,187.936615 21.549450,188.736969 
	C19.433609,189.681656 19.876715,190.858765 20.530304,192.182571 
	C26.025145,203.312073 31.876781,214.203049 41.180721,222.749237 
	C43.490147,224.870575 45.807510,227.138824 49.714169,226.177856 
	C50.377502,225.614624 50.828552,225.491013 51.614754,225.934845 
	C52.472988,228.681671 54.218781,229.013489 56.328468,228.537094 
	C58.354710,228.079529 60.362534,227.540390 62.779541,227.008575 
	C63.894306,228.683701 62.854145,229.941742 61.848545,230.936050 
	C55.179745,237.530045 37.993912,233.359802 34.167641,223.885559 
z"/>
<path fill="#05000E" opacity="1.000000" stroke="none" 
	d="
M21.565798,189.210541 
	C21.206652,188.611923 21.092175,188.182205 20.906181,187.427948 
	C18.598719,184.604736 17.228014,181.569839 15.540962,178.308044 
	C15.422379,175.912781 14.830399,174.027878 14.208541,172.120331 
	C10.422919,160.507889 5.585161,149.261444 2.207319,137.504181 
	C1.738251,135.871475 1.499767,134.277924 1.221201,132.309113 
	C1.000000,126.311958 1.000000,120.623917 1.000000,114.467941 
	C3.766514,115.670036 4.011517,118.727669 4.684067,121.350883 
	C12.095787,150.259644 20.226025,178.891449 34.963799,205.157089 
	C35.752102,206.562012 38.110611,208.634995 35.987923,209.808792 
	C34.058693,210.875595 32.693394,208.142975 31.718637,206.513596 
	C28.331940,200.852448 25.100782,195.098251 21.565798,189.210541 
z"/>
<path fill="#010002" opacity="1.000000" stroke="none" 
	d="
M42.312408,1.727659 
	C42.074757,3.058989 41.975254,4.106044 41.793037,5.539466 
	C40.311325,8.955460 41.287739,12.162185 41.022945,15.640390 
	C40.929508,19.671972 40.826370,23.338812 40.621246,27.449387 
	C39.469063,31.304380 40.232487,34.805870 40.006275,38.630753 
	C39.904213,46.331532 39.799450,53.659546 39.606331,61.441952 
	C38.525368,69.713623 38.990219,77.546951 39.409622,85.771400 
	C39.559662,86.164680 39.815556,86.089600 39.937160,86.034897 
	C41.243114,92.386108 40.950272,98.816177 40.085945,105.647766 
	C38.908012,106.703072 37.985237,106.673248 36.655899,105.869797 
	C34.118576,98.338943 34.388607,90.835907 33.724579,83.009750 
	C35.421303,79.080582 34.158836,75.643219 33.501999,71.748947 
	C33.346752,63.466049 33.201241,55.626026 33.281025,47.787277 
	C33.294479,46.465172 33.261093,45.333076 32.240437,43.874271 
	C32.037209,43.455746 31.988556,43.499813 32.014038,43.520504 
	C31.534130,32.414680 34.925934,21.386749 32.703281,10.172921 
	C32.159760,7.430706 31.943026,4.184263 34.649090,1.359320 
	C37.041668,1.000000 39.083332,1.000000 41.562500,1.000000 
	C42.150185,1.147794 42.300369,1.295589 42.312408,1.727659 
z"/>
<path fill="#0B0018" opacity="1.000000" stroke="none" 
	d="
M118.307709,325.288971 
	C118.320663,323.597107 118.585602,322.162231 118.934143,320.371460 
	C121.175591,318.207245 122.497208,318.657471 124.021156,321.122986 
	C125.777237,323.964081 125.940819,327.066437 126.822815,330.064240 
	C128.787689,336.742615 130.916809,343.389191 132.826981,350.085327 
	C136.040009,361.348663 143.462204,370.749664 146.558929,382.100494 
	C147.679520,386.207947 148.642410,390.468384 150.738251,394.696899 
	C151.000000,399.166656 150.658981,403.370697 151.110153,407.487915 
	C151.457977,410.662170 149.654388,409.951935 147.500000,410.000000 
	C142.837479,405.383148 142.031006,399.299896 140.159561,393.739502 
	C139.003036,390.303284 138.233704,386.609985 136.309067,383.628571 
	C130.485397,374.607361 128.148224,364.557556 126.702255,354.178284 
	C126.452171,352.383118 125.482498,351.023193 124.362579,349.275879 
	C123.537407,348.162354 123.308586,347.187744 122.815956,345.942444 
	C122.528954,344.231598 122.346237,342.859222 121.608444,341.281616 
	C121.542595,340.720428 121.530418,340.494812 121.514809,339.931091 
	C121.483986,339.142151 121.497856,338.692383 121.488983,337.909760 
	C121.470123,336.661560 121.536880,335.747467 121.497360,334.482483 
	C122.231842,330.685669 120.529602,328.069397 118.307709,325.288971 
z"/>
<path fill="#05000E" opacity="1.000000" stroke="none" 
	d="
M151.000000,394.532410 
	C149.250351,394.535797 148.070801,393.394226 147.511063,391.729736 
	C143.119827,378.671448 136.385803,366.581055 131.615372,353.722321 
	C128.469666,345.242950 127.089211,336.109772 124.900192,327.273834 
	C124.139748,324.204346 123.569725,320.971466 119.375122,320.062622 
	C119.348679,318.899170 119.612518,317.756805 120.030960,316.674194 
	C120.391739,315.740784 120.902283,314.789520 122.136810,314.881958 
	C123.283646,314.967773 123.869957,315.851868 124.232353,316.787445 
	C125.432976,319.886932 127.060028,322.927551 127.623032,326.148132 
	C129.402695,336.328430 133.879166,345.403198 138.337799,354.542999 
	C141.401428,360.823181 144.148849,367.258087 147.009644,373.636383 
	C147.765503,375.321594 148.416443,377.054352 150.674957,377.885803 
	C151.000000,383.354919 151.000000,388.709869 151.000000,394.532410 
z"/>
<path fill="#0A0016" opacity="1.000000" stroke="none" 
	d="
M20.242254,149.539307 
	C17.295347,148.959808 16.340416,146.895248 15.698651,144.279633 
	C10.950569,124.928070 6.880093,105.431900 2.965558,85.899895 
	C2.543536,83.794167 1.910284,81.730774 1.187508,79.323868 
	C1.000000,71.979050 1.000000,64.958107 1.000000,57.468578 
	C1.389737,56.610947 1.852844,56.478554 2.629685,56.900719 
	C2.870042,57.198601 2.834896,57.612881 2.914290,57.805008 
	C3.746348,58.679607 4.034145,59.506287 3.653090,60.831512 
	C3.658304,62.189915 3.781669,63.220596 4.056760,64.611961 
	C4.545170,65.451340 4.853360,65.940651 4.726427,66.845367 
	C5.087516,70.155289 5.524151,73.183907 6.113316,76.589752 
	C6.578639,77.450165 6.869143,77.941315 6.768085,78.829437 
	C7.123344,81.812393 7.542197,84.515633 8.109793,87.592552 
	C8.817061,88.681427 9.008767,89.501617 8.931101,90.715103 
	C8.997965,92.091660 9.086792,93.145744 9.306803,94.576569 
	C11.684965,102.552292 13.443303,110.247131 13.984625,118.595505 
	C14.041384,119.755333 14.107074,120.498581 14.304083,121.593254 
	C16.522808,124.931763 17.465437,127.974411 17.401520,131.879562 
	C17.340286,135.620743 19.159649,139.456284 20.157133,143.248810 
	C20.679914,145.236481 21.151289,147.152344 20.242254,149.539307 
z"/>
<path fill="#6503AD" opacity="1.000000" stroke="none" 
	d="
M1.335710,335.285950 
	C1.000000,331.307098 1.000000,327.614166 1.000000,323.460632 
	C2.596168,321.202820 4.566030,321.513245 6.615360,321.916748 
	C18.925186,324.340576 31.189472,325.830872 43.016911,319.816254 
	C44.110313,319.260254 45.346394,318.888153 46.145412,320.077484 
	C47.134090,321.549133 46.005413,322.380951 44.926846,323.312347 
	C37.714432,329.540405 28.969398,332.415222 19.947529,334.416962 
	C13.976863,335.741730 7.822010,336.109222 1.335710,335.285950 
z"/>
<path fill="#6901B4" opacity="1.000000" stroke="none" 
	d="
M13.571538,1.000000 
	C13.495867,12.853840 15.779782,24.487946 17.179064,36.153290 
	C18.628687,48.238338 18.445526,60.408920 19.993801,72.458778 
	C20.269442,74.604019 20.590336,76.745476 20.785456,78.898186 
	C20.886820,80.016510 21.180075,81.576523 19.731852,81.864464 
	C18.044544,82.199944 18.139624,80.498558 17.988951,79.454620 
	C17.585491,76.659286 17.081165,73.845993 17.050915,71.035172 
	C16.944738,61.170361 14.737232,51.541763 13.894441,41.794510 
	C12.730786,28.336317 8.605062,15.370705 8.002924,1.435532 
	C9.714358,1.000000 11.428718,1.000000 13.571538,1.000000 
z"/>
<path fill="#3F016F" opacity="1.000000" stroke="none" 
	d="
M1.000000,335.375000 
	C12.901264,334.130249 24.847763,333.614807 35.840714,328.033112 
	C39.382244,326.234863 42.679871,324.299805 45.539970,321.309418 
	C44.794323,320.876740 44.432396,320.522125 44.276539,320.596893 
	C31.791653,326.589294 18.856897,325.564270 5.816651,323.147583 
	C4.526085,322.908356 3.182339,322.956116 1.431640,322.935333 
	C1.000000,322.250000 1.000000,321.500000 1.000002,320.375000 
	C5.739342,320.751160 10.510933,321.341339 15.212115,322.282990 
	C30.740070,325.393341 43.953636,321.056641 55.489574,309.985352 
	C56.445728,309.485931 57.154209,309.387146 58.352264,309.806091 
	C46.548725,327.793671 29.058807,335.528076 8.133584,336.772552 
	C5.997968,336.899567 3.879966,337.322784 1.376894,337.804260 
	C1.000000,337.250000 1.000000,336.500000 1.000000,335.375000 
z"/>
<path fill="#120025" opacity="1.000000" stroke="none" 
	d="
M124.655106,347.763000 
	C128.119751,350.389740 128.329254,354.022644 128.893707,357.418610 
	C130.071213,364.502869 131.954590,371.108093 135.928482,377.394928 
	C142.006454,387.010437 144.314545,398.223602 146.994598,409.590149 
	C145.611115,410.000000 144.222214,410.000000 142.416656,410.000000 
	C139.746826,406.731293 138.843582,402.876526 137.530243,399.231262 
	C135.913971,394.745117 134.249756,390.390350 131.401627,386.464966 
	C128.769180,382.836792 128.023483,378.343323 126.731201,373.671600 
	C126.512993,372.407501 126.486259,371.553192 126.309341,370.287720 
	C125.306099,363.386627 124.702431,356.822449 121.609161,350.431396 
	C121.600586,349.414612 121.744987,348.865479 122.325623,348.038971 
	C123.154175,347.450043 123.711029,347.384216 124.655106,347.763000 
z"/>
<path fill="#120025" opacity="1.000000" stroke="none" 
	d="
M70.321579,25.741705 
	C70.080246,27.439487 70.071381,28.809017 70.057930,30.589447 
	C68.927460,33.409702 69.445755,36.200085 67.972404,38.850025 
	C63.925034,40.386593 62.951820,37.494373 61.601368,34.728874 
	C61.543671,33.804295 61.538635,33.280182 61.595005,32.376892 
	C61.789974,31.262575 62.116058,30.583292 62.428463,29.513136 
	C62.609001,28.665565 62.672485,28.171217 62.705566,27.284777 
	C63.262745,21.603546 65.256126,16.598976 65.781189,10.921471 
	C65.565155,9.767331 65.541145,9.001216 65.879868,7.895995 
	C66.434212,6.936566 66.818642,6.311329 66.911247,5.187200 
	C67.210243,4.135581 67.754295,3.647985 68.367279,2.787574 
	C68.873482,2.156265 69.187294,1.817373 69.756477,1.244730 
	C71.714355,1.000000 73.428719,1.000000 75.571533,1.000000 
	C75.982475,1.437679 75.964951,1.875357 75.939835,2.641476 
	C74.135269,8.770746 73.199982,14.763849 72.028572,20.701653 
	C71.704697,22.343376 71.174805,23.883514 70.321579,25.741705 
z"/>
<path fill="#0F011E" opacity="1.000000" stroke="none" 
	d="
M1.000000,166.437500 
	C2.070472,166.202957 2.817565,166.876999 3.179180,167.834793 
	C8.913200,183.022217 16.572777,197.295166 23.985443,212.085236 
	C21.222361,212.246384 20.306210,209.905075 19.077805,208.004669 
	C12.036611,197.111572 7.052179,185.161285 1.223828,173.264984 
	C1.000000,170.958328 1.000000,168.916672 1.000000,166.437500 
z"/>
<path fill="#22013E" opacity="1.000000" stroke="none" 
	d="
M136.280823,409.684235 
	C134.933334,410.000000 133.866653,410.000000 132.399994,410.000000 
	C129.465347,407.965149 126.415169,406.598297 124.795273,403.413361 
	C124.104553,402.055328 123.335945,400.800018 123.633026,399.367889 
	C125.181732,391.902161 122.898201,384.967926 120.807144,378.011658 
	C119.893250,374.971436 119.215302,371.929932 119.491966,368.287140 
	C119.547081,366.645721 119.248840,365.419220 120.112625,363.914307 
	C120.894585,363.177826 121.455902,362.961060 122.528992,362.962952 
	C124.160545,363.518402 124.806343,364.495270 125.419601,366.018066 
	C127.409012,371.048218 125.319405,376.361511 128.267273,381.188599 
	C128.780243,382.029602 128.963531,382.551270 128.977402,383.535645 
	C127.741875,389.352661 130.603973,393.613586 132.935196,397.996155 
	C134.840973,401.578857 137.848343,404.778961 136.280823,409.684235 
z"/>
<path fill="#4D0186" opacity="1.000000" stroke="none" 
	d="
M51.491943,20.329235 
	C52.121830,13.909353 52.561623,7.905976 53.000710,1.451299 
	C53.750000,1.000000 54.500000,1.000000 55.625000,1.000000 
	C56.422821,1.523517 56.945335,1.682278 57.789856,1.215877 
	C59.066669,1.000000 60.133339,1.000000 61.600006,1.000000 
	C63.747707,2.380041 63.783974,4.524650 63.322502,6.159941 
	C62.172844,10.233877 62.762634,14.339794 62.409592,18.847576 
	C62.294739,19.546595 62.221054,19.814676 61.917168,20.415569 
	C60.735340,21.695923 59.247952,21.342615 58.018913,22.458284 
	C57.711750,22.990435 57.630825,23.230207 57.484406,23.854103 
	C57.004547,25.362259 56.201134,26.034126 54.598408,26.326550 
	C50.871983,25.679646 50.828060,23.344305 51.491943,20.329235 
z"/>
<path fill="#7901CF" opacity="1.000000" stroke="none" 
	d="
M34.583336,1.000000 
	C34.924904,13.469257 34.875900,25.938782 34.748611,38.407505 
	C34.727795,40.446934 35.569126,42.829105 32.573612,43.880531 
	C29.882576,40.239323 31.330465,36.465660 30.566364,32.529427 
	C29.951147,30.810715 29.963690,29.483629 30.234863,27.762589 
	C31.558323,23.508141 30.933510,19.565624 30.670170,15.266033 
	C30.399849,10.568440 30.251722,6.246141 30.051798,1.461920 
	C31.388889,1.000000 32.777779,1.000000 34.583336,1.000000 
z"/>
<path fill="#230140" opacity="1.000000" stroke="none" 
	d="
M120.581024,367.739655 
	C121.051430,376.011993 125.877266,383.278839 125.241936,391.315948 
	C124.670242,398.548096 127.187363,404.211060 131.912537,409.657776 
	C129.629440,410.000000 127.258888,410.000000 124.444168,410.000000 
	C122.461937,408.609894 122.487015,406.700592 122.230965,404.855774 
	C120.799026,394.539215 118.268188,384.397888 117.275459,373.544586 
	C117.076462,371.545990 117.604279,370.106567 118.158821,368.273193 
	C118.975044,367.552338 119.553543,367.420441 120.581024,367.739655 
z"/>
<path fill="#4D0186" opacity="1.000000" stroke="none" 
	d="
M109.316925,409.720764 
	C108.555557,410.000000 108.111107,410.000000 107.333328,410.000000 
	C104.836464,408.416931 104.910210,406.244751 105.081635,403.844452 
	C105.378555,399.686981 106.597107,395.412872 103.957016,391.095154 
	C103.455795,390.244476 103.348740,389.698364 103.411873,388.699127 
	C103.507172,386.342804 104.155403,384.526245 104.573105,382.229309 
	C104.720566,379.742432 106.209930,378.309662 107.336945,376.274658 
	C112.918922,374.922882 116.060928,378.279816 114.148117,383.585144 
	C113.120163,386.436218 113.330093,388.550812 115.024849,391.258911 
	C115.305138,394.006836 115.083618,396.295715 114.154587,398.895996 
	C112.718719,400.670685 112.442070,402.386841 112.427101,404.149078 
	C112.407829,406.417664 111.804253,408.330627 109.316925,409.720764 
z"/>
<path fill="#2B014D" opacity="1.000000" stroke="none" 
	d="
M118.559021,372.743774 
	C118.949348,375.950439 118.806030,379.049408 120.021194,381.791809 
	C123.906998,390.561371 122.637413,400.024750 123.999779,409.562805 
	C123.250000,410.000000 122.500000,410.000000 121.375000,410.000000 
	C116.795624,404.961121 116.708916,398.520813 115.257240,392.577850 
	C114.983490,391.457153 115.359337,390.162659 114.108803,388.874878 
	C113.613869,388.079803 113.409843,387.586426 113.234451,386.679565 
	C113.596886,384.794647 114.682610,383.524506 114.626076,381.491486 
	C115.090881,379.764740 114.333588,378.365570 115.025070,376.631226 
	C115.690811,374.609772 115.675171,372.543457 118.559021,372.743774 
z"/>
<path fill="#18012F" opacity="1.000000" stroke="none" 
	d="
M127.249710,384.316345 
	C126.998718,383.555817 126.997124,383.111664 126.995155,382.334351 
	C127.259888,378.971008 124.286690,375.870270 127.592148,372.951263 
	C130.678452,383.975372 139.199371,392.495148 140.951538,403.863403 
	C141.226517,405.647369 141.638916,407.410156 141.993881,409.591370 
	C141.250000,410.000000 140.500000,410.000000 139.375000,410.000000 
	C135.234482,401.513367 129.580963,393.882660 127.249710,384.316345 
z"/>
<path fill="#35015F" opacity="1.000000" stroke="none" 
	d="
M59.533745,20.287003 
	C59.842201,19.888018 60.163967,19.926350 60.316345,19.981413 
	C63.217445,15.258321 61.593895,9.605393 63.509579,4.615402 
	C63.850029,3.728602 63.835720,2.572868 64.704781,1.326374 
	C66.388893,1.000000 67.777779,1.000000 69.583336,1.000000 
	C69.989967,1.439042 69.979935,1.878083 69.948036,2.645797 
	C69.540710,3.404107 69.182007,3.849665 69.045212,4.721815 
	C68.998177,5.747749 68.963326,6.486381 68.902573,7.593873 
	C68.523872,8.412965 68.170959,8.863142 68.093414,9.740925 
	C67.048187,15.729538 65.994583,21.432190 64.892456,27.534559 
	C64.016998,28.901157 63.163036,29.833570 61.413891,30.331985 
	C56.335247,28.656994 55.887661,26.098688 59.533745,20.287003 
z"/>
<path fill="#5E01A1" opacity="1.000000" stroke="none" 
	d="
M104.573730,390.031097 
	C107.845100,390.518036 107.860817,392.683502 107.990990,394.900787 
	C108.272453,399.694916 107.537682,404.406311 107.005661,409.568787 
	C104.629440,410.000000 102.258888,410.000000 99.444168,410.000000 
	C98.154770,409.172729 97.572571,408.219116 97.538010,406.562958 
	C98.327858,401.141968 100.998329,396.715027 101.872543,391.730957 
	C102.040413,390.773895 103.078018,390.208191 104.573730,390.031097 
z"/>
<path fill="#1B0134" opacity="1.000000" stroke="none" 
	d="
M75.437500,410.000000 
	C77.754189,402.142761 82.737366,395.632477 87.532692,388.907959 
	C87.406212,396.250061 84.130531,402.584686 82.033798,409.627228 
	C79.958336,410.000000 77.916664,410.000000 75.437500,410.000000 
z"/>
<path fill="#35015F" opacity="1.000000" stroke="none" 
	d="
M114.656616,387.900940 
	C118.797646,394.537964 120.466141,401.679840 120.997299,409.571320 
	C119.611107,410.000000 118.222221,410.000000 116.416664,410.000000 
	C112.466888,407.439850 112.662003,403.448639 112.022240,399.380127 
	C112.278404,396.931610 112.581619,394.862793 112.903046,392.400940 
	C113.211784,390.559296 112.459557,388.774048 114.656616,387.900940 
z"/>
<path fill="#230140" opacity="1.000000" stroke="none" 
	d="
M1.000000,132.428467 
	C6.034681,145.977875 11.083743,159.950623 16.075235,173.943893 
	C16.452061,175.000290 16.419149,176.202850 16.494171,177.664001 
	C16.193958,178.211090 15.976277,178.431656 15.440178,178.313583 
	C10.533777,164.861984 5.945795,151.749023 1.178906,138.318039 
	C1.000000,136.285645 1.000000,134.571289 1.000000,132.428467 
z"/>
<path fill="#22013E" opacity="1.000000" stroke="none" 
	d="
M1.000000,240.333328 
	C4.134051,241.012253 6.192954,243.382965 8.285706,245.727432 
	C13.842831,251.952957 20.149555,257.215057 27.394091,261.451660 
	C31.266417,263.716217 35.647308,263.675659 39.871643,265.443848 
	C33.440098,267.240112 28.233440,263.730804 22.969038,260.643616 
	C14.715203,255.803406 8.829252,248.204666 1.342315,242.033386 
	C1.000000,241.555557 1.000000,241.111099 1.000000,240.333328 
z"/>
<path fill="#1B0134" opacity="1.000000" stroke="none" 
	d="
M126.999001,384.436218 
	C133.043930,391.429901 136.579071,400.049988 138.982178,409.607819 
	C138.250000,410.000000 137.500000,410.000000 136.375000,410.000000 
	C135.384018,405.440094 133.720062,401.379425 130.506424,397.986847 
	C126.986107,394.270538 127.249260,389.490967 126.999001,384.436218 
z"/>
<path fill="#3F016F" opacity="1.000000" stroke="none" 
	d="
M104.976189,389.653961 
	C101.981934,394.661743 102.568596,400.597015 99.383163,405.536133 
	C97.877785,406.758728 97.967468,408.715668 96.237076,409.763733 
	C95.250000,410.000000 94.500000,410.000000 93.375000,410.000000 
	C95.713745,402.782898 98.427498,395.565826 101.329697,388.045074 
	C102.352020,387.378815 103.189919,387.042969 104.485916,387.620239 
	C104.880249,388.360443 104.912979,388.830963 104.976189,389.653961 
z"/>
<path fill="#3F016F" opacity="1.000000" stroke="none" 
	d="
M111.772583,399.306366 
	C115.282631,401.627441 115.335152,405.526031 115.980064,409.600494 
	C113.958336,410.000000 111.916664,410.000000 109.437500,410.000000 
	C110.129875,406.605042 109.697784,402.823639 111.772583,399.306366 
z"/>
<path fill="#1B0134" opacity="1.000000" stroke="none" 
	d="
M64.625000,1.000000 
	C64.590660,7.357748 63.927879,13.661156 60.752510,19.761585 
	C61.002129,13.981681 61.535538,7.926887 62.034473,1.436046 
	C62.750000,1.000000 63.500000,1.000000 64.625000,1.000000 
z"/>
<path fill="#6E01BC" opacity="1.000000" stroke="none" 
	d="
M1.000000,255.428467 
	C3.050113,255.468750 4.438966,256.817291 5.791770,258.730469 
	C6.905077,260.588226 7.098640,261.928925 4.408955,262.212280 
	C3.207530,261.705444 2.413825,261.418457 1.310060,261.065735 
	C1.000000,259.285645 1.000000,257.571289 1.000000,255.428467 
z"/>
<path fill="#5E01A1" opacity="1.000000" stroke="none" 
	d="
M22.666668,1.000000 
	C22.038618,5.038895 23.347628,9.086158 22.855110,13.583775 
	C18.838070,10.469813 21.869848,5.888193 20.992523,1.438220 
	C21.444445,1.000000 21.888889,1.000000 22.666668,1.000000 
z"/>
<path fill="#33025A" opacity="1.000000" stroke="none" 
	d="
M96.375000,410.000000 
	C96.323997,408.365173 96.973557,406.945190 98.859619,405.968933 
	C99.114342,406.923126 99.058960,408.044983 99.001785,409.583405 
	C98.250000,410.000000 97.500000,410.000000 96.375000,410.000000 
z"/>
<path fill="#6901B4" opacity="1.000000" stroke="none" 
	d="
M57.666668,1.000000 
	C57.826557,1.914437 58.240513,3.327456 57.057301,3.504425 
	C56.041607,3.656340 56.270195,2.329798 56.039375,1.296297 
	C56.444447,1.000000 56.888889,1.000000 57.666668,1.000000 
z"/>
<path fill="#6303A8" opacity="1.000000" stroke="none" 
	d="
M2.988118,56.918270 
	C2.445929,57.014431 2.021816,56.830261 1.298851,56.823044 
	C1.000000,56.250000 1.000000,55.500000 1.000000,54.375000 
	C2.882025,53.937202 3.539770,54.851902 2.988118,56.918270 
z"/>
<path fill="#6303A8" opacity="1.000000" stroke="none" 
	d="
M1.000000,47.375000 
	C2.416272,47.705135 3.026708,48.558678 1.258093,49.901413 
	C1.000000,49.250000 1.000000,48.500000 1.000000,47.375000 
z"/>
<path fill="#6503AD" opacity="1.000000" stroke="none" 
	d="
M42.343887,1.871543 
	C42.106636,1.849923 42.039009,1.687911 41.985691,1.262949 
	C42.000000,1.000000 42.500000,1.000000 42.750000,1.000000 
	C42.875134,1.268535 42.712971,1.512252 42.343887,1.871543 
z"/>
<path fill="#0A0016" opacity="1.000000" stroke="none" 
	d="
M66.750435,38.283237 
	C68.419472,36.033314 67.519173,33.198936 69.784721,31.231144 
	C71.032829,34.643871 70.285339,38.341820 69.699043,41.841209 
	C67.316109,56.064209 65.456688,70.295464 64.358093,84.709526 
	C63.110134,101.083359 61.809166,117.447647 61.765160,133.850784 
	C61.736225,144.634201 61.605240,155.471008 62.847252,166.681702 
	C58.782436,168.114929 59.020542,163.971802 57.042152,161.971252 
	C56.753052,160.430069 56.980526,159.273911 56.588516,157.743774 
	C56.334316,156.772369 56.179195,156.216904 55.955620,155.220718 
	C56.105770,153.028305 56.828186,151.379318 56.978798,149.162476 
	C57.463058,145.530380 56.425884,142.487823 56.159821,138.927521 
	C58.169376,127.635933 58.130722,116.774765 56.249290,105.516487 
	C55.311150,102.223114 55.652134,99.312103 56.090919,96.010025 
	C56.731800,94.188866 57.625931,92.991089 58.816036,91.564957 
	C59.481083,90.374199 59.493099,89.411919 59.489292,88.074684 
	C59.492496,87.199661 59.494076,86.696419 59.496445,85.807388 
	C59.509460,83.598061 59.477993,81.774193 59.569607,79.564743 
	C60.237247,76.993576 61.304169,74.907936 61.116558,72.152176 
	C60.992313,70.472748 61.044262,69.182976 61.240807,67.506927 
	C61.276909,66.596924 61.291290,66.076973 61.317852,65.167984 
	C61.350189,62.976112 61.531445,61.166260 61.079521,59.001972 
	C61.002556,57.591488 61.065639,56.589920 61.960205,55.433937 
	C62.398045,52.156853 62.479507,49.192299 63.022003,45.886402 
	C63.021633,44.708443 63.115459,43.935879 63.605034,42.846451 
	C64.550758,41.096718 65.122940,39.567852 66.750435,38.283237 
z"/>
<path fill="#35015F" opacity="1.000000" stroke="none" 
	d="
M58.220169,148.758636 
	C58.521900,150.802429 58.637794,152.463593 58.735542,154.542450 
	C58.395000,155.462173 58.235035,155.984940 58.679451,156.796707 
	C58.953205,158.063629 59.060608,159.097366 59.198975,160.519592 
	C60.443970,163.468079 59.843185,166.569168 61.762985,169.314850 
	C62.066669,170.398163 62.367279,171.100037 62.233124,172.225937 
	C61.652733,175.147156 63.650028,177.001312 64.222366,179.622772 
	C64.532402,180.622452 64.785233,181.279083 64.940720,182.310516 
	C64.731812,185.482224 66.563652,187.794083 67.011627,190.801666 
	C67.563538,192.239670 68.026260,193.350922 68.585144,194.810089 
	C68.287025,197.493851 69.907112,200.019958 67.666901,202.451706 
	C66.468208,203.004105 65.650009,202.894531 64.515846,202.243393 
	C63.240017,200.583420 62.684502,198.968613 61.563820,197.179550 
	C58.756149,185.944489 54.478878,175.519409 52.928257,164.009460 
	C52.332466,162.734772 51.871964,161.825790 51.425526,160.514267 
	C50.983196,159.252502 50.776302,158.310226 50.632790,156.987213 
	C50.519260,154.450745 50.491989,152.272629 50.495232,149.717575 
	C51.306538,146.531937 49.971397,143.775635 50.331951,140.583588 
	C50.821236,138.054047 48.787483,136.066574 50.257198,133.554474 
	C54.943657,132.242233 56.597595,133.375183 56.292709,137.555771 
	C56.016613,141.341690 56.956676,144.850662 58.220169,148.758636 
z"/>
<path fill="#1B0134" opacity="1.000000" stroke="none" 
	d="
M92.419975,330.822754 
	C90.014908,328.503906 91.981598,323.955444 87.656372,322.180298 
	C88.455383,317.298370 89.570267,312.485138 90.814056,307.313385 
	C95.494751,304.924835 95.316376,308.576874 96.070717,311.599060 
	C95.103249,318.224213 95.417152,324.676849 92.419975,330.822754 
z"/>
<path fill="#05000E" opacity="1.000000" stroke="none" 
	d="
M94.296745,282.311218 
	C94.382393,279.381409 94.706726,276.743896 95.139542,274.124359 
	C95.381798,272.658203 95.634293,270.829193 97.524628,270.834442 
	C99.388298,270.839600 99.528610,272.736420 100.021591,274.119781 
	C102.284492,280.469788 101.304916,286.872955 100.186752,293.641296 
	C97.083672,294.585358 97.148682,292.220123 96.497002,290.494263 
	C95.532646,287.940277 96.544220,284.913879 94.296745,282.311218 
z"/>
<path fill="#0B0018" opacity="1.000000" stroke="none" 
	d="
M94.001190,282.435669 
	C97.432999,282.361145 97.782532,285.115051 98.391197,287.640778 
	C98.846329,289.529388 99.238518,291.433136 99.834473,293.667664 
	C100.080406,297.547546 99.521622,300.990021 98.189545,304.671997 
	C94.981110,305.481293 95.058075,303.188599 94.660049,301.281281 
	C94.196518,299.059998 95.306961,296.575043 93.258240,294.281189 
	C93.317543,290.277710 93.653603,286.568817 94.001190,282.435669 
z"/>
<path fill="#120025" opacity="1.000000" stroke="none" 
	d="
M92.894180,294.372986 
	C95.780624,294.213135 96.858932,295.878357 96.986282,298.531769 
	C97.078705,300.457489 97.421120,302.371185 97.830887,304.648010 
	C97.494186,307.135223 96.978638,309.264709 96.295197,311.707916 
	C94.429634,310.580750 93.976341,307.970734 91.262650,307.069519 
	C90.819847,302.775940 91.976929,298.792664 92.894180,294.372986 
z"/>
<path fill="#2B014D" opacity="1.000000" stroke="none" 
	d="
M120.977448,367.569458 
	C120.536499,367.973389 120.095383,367.982971 119.323120,367.995270 
	C116.179260,368.489075 116.192741,366.192352 115.415558,364.521484 
	C114.312859,362.150848 115.241501,359.302460 113.292374,356.827515 
	C111.366585,354.622559 113.214409,352.696228 113.068062,350.400635 
	C113.272392,349.486694 113.442078,348.947784 113.755447,348.164490 
	C116.262299,346.569122 117.677780,347.611206 119.094559,349.613647 
	C120.468063,351.554932 119.945442,354.146027 121.845161,356.238586 
	C122.413651,358.905334 124.216377,361.334625 121.286896,363.729370 
	C120.982529,365.067078 120.979897,366.121094 120.977448,367.569458 
z"/>
<path fill="#1B0134" opacity="1.000000" stroke="none" 
	d="
M112.893341,350.321167 
	C114.090981,351.411072 113.253700,353.015869 113.737129,354.740204 
	C116.941162,358.497833 112.941917,361.443512 113.066322,365.118256 
	C112.189262,369.278320 112.323273,373.432190 108.351166,376.262451 
	C107.183655,376.960480 106.363251,376.977783 105.225189,376.293030 
	C106.516106,367.219727 109.977142,359.033539 112.893341,350.321167 
z"/>
<path fill="#230140" opacity="1.000000" stroke="none" 
	d="
M121.371727,357.163269 
	C117.909424,354.752441 119.005119,349.458344 114.215012,348.088257 
	C114.240280,345.871796 114.581444,343.823456 114.988670,341.389435 
	C117.971359,338.662567 119.630653,339.631317 120.716064,342.948486 
	C121.401619,345.043640 121.325264,347.262054 122.239029,349.732147 
	C122.451057,352.177643 124.113434,354.028778 122.828018,356.543091 
	C122.309845,357.044006 122.048279,357.183899 121.371727,357.163269 
z"/>
<path fill="#0A0016" opacity="1.000000" stroke="none" 
	d="
M70.393188,25.891407 
	C71.473778,18.419779 72.154007,10.606050 75.644897,3.174044 
	C75.021790,10.742992 74.770248,18.667736 70.393188,25.891407 
z"/>
<path fill="#33025A" opacity="1.000000" stroke="none" 
	d="
M66.810562,202.766052 
	C67.021545,200.067429 66.994484,197.758835 68.494202,195.450012 
	C70.701279,198.013885 72.902054,200.761047 74.137421,204.478088 
	C74.055008,205.077087 73.909378,205.324692 73.412323,205.822083 
	C70.292397,206.571442 67.890205,206.267578 66.810562,202.766052 
z"/>
<path fill="#120025" opacity="1.000000" stroke="none" 
	d="
M118.006889,325.409363 
	C124.071281,325.132538 123.203751,329.562897 123.163864,333.692688 
	C119.935188,336.117737 119.288742,332.774902 117.413498,331.332336 
	C117.425301,329.296844 117.691673,327.541809 118.006889,325.409363 
z"/>
<path fill="#0A0016" opacity="1.000000" stroke="none" 
	d="
M61.202499,331.740082 
	C59.608467,332.000885 58.240864,332.002716 56.464802,332.005554 
	C57.880489,329.452942 59.681381,326.882233 61.542648,324.355988 
	C62.116276,323.577423 62.818737,322.553711 63.950031,323.136963 
	C65.036613,323.697205 64.815056,324.883972 64.398384,325.773071 
	C63.489048,327.713470 62.427990,329.582764 61.202499,331.740082 
z"/>
<path fill="#22013E" opacity="1.000000" stroke="none" 
	d="
M122.223038,350.322479 
	C119.891754,348.929321 119.974129,346.783051 119.478401,344.949768 
	C118.940926,342.962097 118.251114,341.191315 115.421310,341.034912 
	C115.517517,339.808563 115.980293,338.613373 116.634644,337.157043 
	C117.783478,336.174347 118.795853,335.899231 120.268234,336.724243 
	C121.006790,337.318909 121.274826,337.773621 121.456589,338.690063 
	C121.453896,341.137756 122.274902,342.924805 123.418892,344.994995 
	C123.877563,346.050232 123.877922,346.755737 123.238770,347.721436 
	C122.997169,348.442871 122.994949,348.885712 122.992828,349.660706 
	C122.821991,350.212250 122.651047,350.431671 122.223038,350.322479 
z"/>
<path fill="#18012F" opacity="1.000000" stroke="none" 
	d="
M120.349854,340.238464 
	C120.003029,339.554108 119.999954,339.111908 119.995453,338.338013 
	C119.358223,336.904022 118.561562,335.962860 117.152939,335.190796 
	C116.969727,333.930115 117.018509,332.881012 117.113106,331.441925 
	C119.408295,330.964813 120.693771,332.767395 122.713791,333.866486 
	C123.029579,335.058624 123.039597,336.113678 123.053123,337.564484 
	C123.411156,338.365051 123.550705,338.833862 123.275879,339.692444 
	C123.076485,340.018188 123.055946,340.023804 123.045868,340.020508 
	C122.340149,340.601715 121.567986,340.799500 120.349854,340.238464 
z"/>
<path fill="#2B014D" opacity="1.000000" stroke="none" 
	d="
M59.045200,309.950684 
	C58.134556,310.037994 57.457798,309.971100 56.274406,309.853912 
	C57.054478,307.764984 58.348274,305.734253 60.900814,304.785919 
	C61.833748,307.214752 60.470562,308.474915 59.045200,309.950684 
z"/>
<path fill="#22013E" opacity="1.000000" stroke="none" 
	d="
M104.774529,376.294617 
	C105.692329,375.984650 106.455307,375.990265 107.598976,375.995483 
	C108.137016,376.154999 108.294380,376.314972 108.367996,376.800934 
	C107.650780,378.574646 107.017303,380.022369 106.244141,381.777496 
	C105.389076,382.615204 104.615517,382.817535 103.404686,382.267029 
	C103.039589,380.069031 103.801224,378.331451 104.774529,376.294617 
z"/>
<path fill="#1B0134" opacity="1.000000" stroke="none" 
	d="
M61.347958,170.216644 
	C59.503151,167.458099 59.062447,164.652847 59.173874,161.319214 
	C61.475914,162.191986 60.494736,165.186050 62.557972,166.917297 
	C62.829632,167.834076 62.844204,168.536606 62.866734,169.591476 
	C62.532566,170.297714 62.112278,170.453201 61.347958,170.216644 
z"/>
<path fill="#33025A" opacity="1.000000" stroke="none" 
	d="
M102.926559,382.378967 
	C103.819382,382.040039 104.579575,382.048584 105.722107,382.071045 
	C105.762863,383.785217 105.421280,385.485535 104.963615,387.537903 
	C104.017448,387.875610 103.187370,387.861298 101.937714,387.794189 
	C101.943413,386.069794 102.368675,384.398132 102.926559,382.378967 
z"/>
<path fill="#2B014D" opacity="1.000000" stroke="none" 
	d="
M67.223099,190.842926 
	C64.549522,189.258301 62.860893,186.992691 63.799088,183.294250 
	C66.819427,183.842514 66.386627,186.720688 67.578873,189.025330 
	C67.587120,189.767502 67.466255,190.162476 67.223099,190.842926 
z"/>
<path fill="#1B0134" opacity="1.000000" stroke="none" 
	d="
M63.865868,180.469345 
	C61.566681,178.277267 61.530823,175.889603 61.315018,173.198242 
	C61.705608,172.575699 62.105270,172.494675 62.788345,172.782974 
	C63.068119,173.415543 63.098679,173.847443 63.149109,174.603470 
	C63.586582,175.484665 64.020851,176.028885 64.629791,176.875916 
	C64.815109,177.848587 64.815552,178.526337 64.829193,179.542755 
	C64.648933,180.222076 64.455467,180.562744 63.865868,180.469345 
z"/>
<path fill="#0A0016" opacity="1.000000" stroke="none" 
	d="
M63.565498,180.399979 
	C63.699299,180.012390 63.928860,179.989487 64.500412,179.923981 
	C65.997833,182.714478 67.600403,185.397034 67.736656,188.968048 
	C65.751167,187.916977 65.515526,185.466034 64.148201,183.275864 
	C63.855186,182.251923 63.758228,181.508301 63.565498,180.399979 
z"/>
<path fill="#33025A" opacity="1.000000" stroke="none" 
	d="
M75.245773,215.066803 
	C74.695297,212.904602 75.327995,210.720886 74.207153,208.351593 
	C73.601959,207.340225 73.838234,206.788742 74.645790,206.172333 
	C76.752655,208.682297 76.826057,211.668289 76.586296,215.059906 
	C76.059853,215.442245 75.753143,215.342331 75.245773,215.066803 
z"/>
<path fill="#47017D" opacity="1.000000" stroke="none" 
	d="
M74.897781,205.817596 
	C74.711967,206.543106 74.469383,207.026230 74.125946,207.760117 
	C73.378792,208.660034 72.732491,209.309204 71.813126,210.013947 
	C71.055161,210.270462 70.551361,210.348068 69.679886,210.138245 
	C68.730865,209.455276 68.403099,208.783295 68.274704,207.647034 
	C69.021538,205.419647 70.880722,206.288635 72.411179,205.461212 
	C72.955315,205.176071 73.203163,205.102554 73.825829,204.929260 
	C74.494637,205.008911 74.708092,205.257492 74.897781,205.817596 
z"/>
<path fill="#18012F" opacity="1.000000" stroke="none" 
	d="
M89.457855,343.040619 
	C88.977875,341.203857 89.221832,339.267120 90.734787,337.290771 
	C91.793861,339.221924 91.083527,341.098724 89.457855,343.040619 
z"/>
<path fill="#0A0016" opacity="1.000000" stroke="none" 
	d="
M43.681908,345.115448 
	C43.525520,346.864441 42.490192,348.207062 40.296013,348.895355 
	C40.480045,347.170563 41.503242,345.815186 43.681908,345.115448 
z"/>
<path fill="#0A0016" opacity="1.000000" stroke="none" 
	d="
M63.172134,172.744690 
	C62.657970,172.951202 62.278381,172.918777 61.619461,172.855865 
	C61.261238,172.119904 61.182343,171.414413 61.087601,170.352844 
	C61.473114,169.988220 61.874466,169.979706 62.575256,169.957520 
	C63.474552,170.720947 63.747337,171.553207 63.172134,172.744690 
z"/>
<path fill="#1B0134" opacity="1.000000" stroke="none" 
	d="
M116.898697,335.298950 
	C118.366333,335.186890 119.522850,335.754395 119.927910,337.673309 
	C119.156487,337.698059 118.318924,337.389740 117.153778,336.988647 
	C116.842949,336.470154 116.859695,336.044434 116.898697,335.298950 
z"/>
<path fill="#0A0016" opacity="1.000000" stroke="none" 
	d="
M48.695526,341.105164 
	C48.646591,342.315430 47.955917,343.338776 46.300308,343.898926 
	C46.352551,342.691406 47.048801,341.672333 48.695526,341.105164 
z"/>
<path fill="#0A0016" opacity="1.000000" stroke="none" 
	d="
M53.275925,345.903717 
	C53.497307,345.443573 53.980526,344.851013 54.727165,344.129578 
	C54.506313,344.590912 54.022038,345.181091 53.275925,345.903717 
z"/>
<path fill="#0A0016" opacity="1.000000" stroke="none" 
	d="
M64.745941,176.886139 
	C64.314064,176.609558 63.813454,176.048279 63.240906,175.207306 
	C63.671715,175.485550 64.174461,176.043488 64.745941,176.886139 
z"/>
<path fill="#18012F" opacity="1.000000" stroke="none" 
	d="
M87.456177,349.115662 
	C87.587616,348.619110 87.951752,347.944794 88.560318,347.113708 
	C88.432785,347.617279 88.060837,348.277588 87.456177,349.115662 
z"/>
<path fill="#6303A8" opacity="1.000000" stroke="none" 
	d="
M21.237823,160.794281 
	C21.270929,160.190048 21.446167,159.949203 21.363619,159.613892 
	C20.328245,157.606644 19.968445,155.654602 20.942898,153.289124 
	C24.328661,152.900436 25.707291,154.587402 26.528345,157.299774 
	C29.630949,167.549225 32.412266,177.962585 37.130287,187.593582 
	C40.809200,195.103424 43.922874,203.240189 51.056606,208.410431 
	C53.854008,210.437851 56.286488,213.908508 60.789555,212.357361 
	C61.447132,210.858917 62.538551,210.625916 64.117477,210.468597 
	C65.940079,210.343445 67.305779,210.419205 68.653351,211.758820 
	C68.945068,212.364670 69.022629,212.623489 68.893333,213.230820 
	C57.125885,219.001831 52.807549,218.297180 44.671017,208.203781 
	C36.236721,197.741013 31.241840,185.397583 26.892349,172.800720 
	C26.299232,171.082962 25.603977,169.400467 24.686552,167.512558 
	C22.337021,165.794128 22.936150,162.945068 21.237823,160.794281 
z"/>
<path fill="#18012F" opacity="1.000000" stroke="none" 
	d="
M29.018456,109.480751 
	C31.287413,120.269753 33.073135,131.075180 34.960037,141.862915 
	C36.935394,153.156357 38.501564,164.552658 42.701054,175.329971 
	C43.626736,177.705612 44.097126,180.110764 43.732498,183.105194 
	C39.528721,175.053497 37.193970,165.957489 34.757111,156.461182 
	C34.158440,155.335831 33.999573,154.514725 33.940876,153.341797 
	C33.833912,152.283981 33.753967,151.541931 33.562386,150.442688 
	C33.268932,149.580719 33.063152,149.082855 32.991600,148.273849 
	C32.762669,146.559250 32.548306,145.112900 32.208405,143.323395 
	C30.686657,141.828354 31.076281,140.229919 31.039459,138.362427 
	C31.038767,137.545425 31.021784,137.108215 30.928925,136.350998 
	C29.992233,135.065186 29.989281,133.884323 30.026173,132.342285 
	C29.634117,128.949554 29.232836,125.910301 28.724018,122.466904 
	C28.141909,121.313698 27.991808,120.487900 28.055851,119.296432 
	C27.957251,117.598450 27.840664,116.219742 27.590324,114.446312 
	C27.041950,112.336617 26.435200,110.574356 29.018456,109.480751 
z"/>
<path fill="#6303A8" opacity="1.000000" stroke="none" 
	d="
M19.948853,150.080292 
	C18.012651,140.860550 15.357326,131.968307 14.396009,122.339966 
	C17.679476,123.859955 20.846844,125.816925 19.098202,130.464920 
	C18.683407,131.567474 19.082809,132.388794 19.999033,133.019180 
	C20.839674,133.597580 21.835304,134.327789 21.662674,135.332932 
	C20.945242,139.510147 22.104015,143.455017 22.807129,147.475220 
	C23.011059,148.641220 22.343918,149.716965 21.179947,150.792984 
	C20.359888,151.401642 19.786980,151.460663 19.273609,150.758209 
	C19.365452,150.310440 19.676128,150.511246 19.676128,150.511246 
	C19.676128,150.511246 19.945749,150.260330 19.948853,150.080292 
z"/>
<path fill="#5E01A1" opacity="1.000000" stroke="none" 
	d="
M29.349689,109.121384 
	C28.186497,110.462502 28.067225,111.963013 27.594006,113.709595 
	C25.014496,111.248436 25.821491,107.659874 25.558416,104.503914 
	C24.650438,93.611359 24.628178,82.673988 25.729851,71.393646 
	C26.812456,81.318169 27.705307,91.607437 28.604822,101.896118 
	C28.805256,104.188690 29.029100,106.479202 29.349689,109.121384 
z"/>
<path fill="#5E01A1" opacity="1.000000" stroke="none" 
	d="
M22.697365,17.401443 
	C24.670586,29.020372 24.700628,41.138138 25.595243,53.190372 
	C25.840584,56.495605 25.840973,59.819023 25.834148,63.588524 
	C22.746309,61.214054 23.834595,57.344334 23.714594,54.086712 
	C23.268780,41.984299 21.119392,29.925442 22.697365,17.401443 
z"/>
<path fill="#6303A8" opacity="1.000000" stroke="none" 
	d="
M14.173813,118.737686 
	C11.353536,111.471832 10.853783,103.505524 9.371916,95.351463 
	C13.106376,102.365250 15.349021,110.076408 14.173813,118.737686 
z"/>
<path fill="#5E01A1" opacity="1.000000" stroke="none" 
	d="
M55.121849,204.033539 
	C55.150448,203.636353 55.560768,203.439331 55.779800,203.377533 
	C57.941055,202.897400 59.162697,204.280426 60.886719,205.386963 
	C61.786327,206.114853 62.321869,206.666077 62.794449,207.737106 
	C62.845661,208.387787 62.809414,208.651245 62.576973,209.262894 
	C61.265556,210.742722 59.952724,210.426682 58.243599,210.101624 
	C55.551472,208.868698 54.873993,206.868118 55.121849,204.033539 
z"/>
<path fill="#0A0016" opacity="1.000000" stroke="none" 
	d="
M19.154354,150.635315 
	C19.709261,150.456345 20.053072,150.602234 20.648689,150.888550 
	C20.954756,151.469955 21.009012,151.910934 21.199129,152.658081 
	C21.456026,154.885849 21.577063,156.807449 21.401966,159.124237 
	C19.918612,156.784164 17.600895,154.334549 19.154354,150.635315 
z"/>
<path fill="#530290" opacity="1.000000" stroke="none" 
	d="
M58.063004,210.311920 
	C59.053154,209.713852 60.260490,209.345993 61.849285,208.951736 
	C62.431767,208.810425 62.632786,208.695496 63.178642,208.621902 
	C64.544167,209.290970 65.402763,210.025238 65.135185,211.682877 
	C63.886600,212.001724 62.813892,212.021561 61.338303,212.071548 
	C60.050346,211.581833 59.165268,211.061981 58.063004,210.311920 
z"/>
<path fill="#18012F" opacity="1.000000" stroke="none" 
	d="
M46.317360,190.273819 
	C48.691322,191.020737 50.100677,192.813950 50.285904,195.724121 
	C50.011051,196.236450 49.807652,196.476837 49.377251,196.302994 
	C48.207008,194.129410 47.263760,192.370041 46.317360,190.273819 
z"/>
<path fill="#5E01A1" opacity="1.000000" stroke="none" 
	d="
M30.883068,138.271179 
	C31.424295,139.400162 31.792841,140.817673 32.122131,142.607712 
	C30.097124,141.981216 29.896875,140.427841 30.883068,138.271179 
z"/>
<path fill="#5E01A1" opacity="1.000000" stroke="none" 
	d="
M29.874012,132.247864 
	C30.342190,133.102158 30.648981,134.215530 30.904411,135.679947 
	C29.396751,135.204559 29.008026,134.032639 29.874012,132.247864 
z"/>
<path fill="#6303A8" opacity="1.000000" stroke="none" 
	d="
M9.067789,90.816841 
	C8.653352,90.227539 8.397569,89.417511 8.200161,88.286858 
	C9.372376,88.551666 9.835362,89.376633 9.067789,90.816841 
z"/>
<path fill="#5E01A1" opacity="1.000000" stroke="none" 
	d="
M27.923996,119.195572 
	C28.291504,119.793884 28.509172,120.610619 28.671665,121.745056 
	C27.572905,121.422417 27.226213,120.560455 27.923996,119.195572 
z"/>
<path fill="#5E01A1" opacity="1.000000" stroke="none" 
	d="
M33.779762,153.249969 
	C34.188999,153.824432 34.464138,154.622818 34.694687,155.741867 
	C33.617432,155.470428 33.176075,154.648895 33.779762,153.249969 
z"/>
<path fill="#6303A8" opacity="1.000000" stroke="none" 
	d="
M3.731977,60.941166 
	C3.298634,60.321362 3.062329,59.483482 2.909854,58.321369 
	C4.238937,58.585491 4.750305,59.425663 3.731977,60.941166 
z"/>
<path fill="#5E01A1" opacity="1.000000" stroke="none" 
	d="
M32.869255,148.181732 
	C33.169968,148.515808 33.362900,149.026016 33.503288,149.810867 
	C32.787636,149.682510 32.480789,149.137390 32.869255,148.181732 
z"/>
<path fill="#18012F" opacity="1.000000" stroke="none" 
	d="
M44.539337,186.195831 
	C44.948177,186.554535 45.351501,187.209732 45.743271,188.166229 
	C45.332420,187.809143 44.933121,187.150726 44.539337,186.195831 
z"/>
<path fill="#6303A8" opacity="1.000000" stroke="none" 
	d="
M6.850970,78.934662 
	C6.514871,78.581779 6.325251,78.054405 6.200738,77.247002 
	C7.041187,77.347870 7.464056,77.872566 6.850970,78.934662 
z"/>
<path fill="#6303A8" opacity="1.000000" stroke="none" 
	d="
M4.802741,66.951363 
	C4.462004,66.596703 4.273129,66.066734 4.146369,65.254707 
	C5.006673,65.346451 5.446850,65.868370 4.802741,66.951363 
z"/>
<path fill="#18012F" opacity="1.000000" stroke="none" 
	d="
M51.990276,199.291550 
	C52.347004,199.045654 52.721825,199.033859 53.096649,199.022064 
	C53.060181,199.294571 53.023708,199.567047 52.845558,199.973129 
	C52.366791,200.039017 52.134956,199.845322 51.990276,199.291550 
z"/>
<path fill="#3F016F" opacity="1.000000" stroke="none" 
	d="
M49.209141,196.164703 
	C49.328129,195.901047 49.505993,195.913315 49.949158,195.960815 
	C50.288170,196.352600 50.361889,196.709152 50.426552,197.338638 
	C50.034336,197.221252 49.651176,196.830948 49.209141,196.164703 
z"/>
<path fill="#7901CF" opacity="1.000000" stroke="none" 
	d="
M4.111707,262.316406 
	C5.016183,261.514160 5.681949,260.759277 5.925758,259.314087 
	C6.506468,259.386536 7.131931,259.690826 7.545998,260.175690 
	C9.045632,261.931610 12.642466,264.038544 10.597817,265.888733 
	C8.145239,268.108093 5.811003,264.964172 4.111707,262.316406 
z"/>
<path fill="#33025A" opacity="1.000000" stroke="none" 
	d="
M73.206512,224.876099 
	C73.142593,224.588608 73.218376,224.075470 73.418091,223.333176 
	C73.476753,223.619492 73.411484,224.134964 73.206512,224.876099 
z"/>
<path fill="#0F011E" opacity="1.000000" stroke="none" 
	d="
M40.176750,243.575241 
	C44.064251,243.041107 48.265579,243.660309 52.684990,242.267487 
	C49.244804,245.893616 44.947060,245.781662 40.176750,243.575241 
z"/>
<path fill="#05000E" opacity="1.000000" stroke="none" 
	d="
M67.123444,231.070923 
	C67.770050,228.496414 68.414032,226.031265 70.703461,224.138046 
	C71.193481,226.839569 69.850090,229.150436 68.385315,231.770050 
	C67.900795,231.797729 67.610771,231.540863 67.123444,231.070923 
z"/>
<path fill="#0F011E" opacity="1.000000" stroke="none" 
	d="
M12.221333,214.072327 
	C12.668122,214.349747 13.182583,214.917328 13.757236,215.772278 
	C13.307954,215.493927 12.798479,214.928192 12.221333,214.072327 
z"/>
<path fill="#0F011E" opacity="1.000000" stroke="none" 
	d="
M8.334744,207.939255 
	C8.776017,208.245834 9.261046,208.859955 9.823317,209.761566 
	C9.393205,209.448318 8.885853,208.847549 8.334744,207.939255 
z"/>
<path fill="#0F011E" opacity="1.000000" stroke="none" 
	d="
M35.126404,240.280075 
	C35.644897,240.440842 36.292271,240.877502 37.092270,241.572174 
	C36.581688,241.405472 35.918484,240.980728 35.126404,240.280075 
z"/>
<path fill="#0F011E" opacity="1.000000" stroke="none" 
	d="
M57.007332,240.721680 
	C57.282688,240.260132 57.860214,239.730133 58.720421,239.102722 
	C58.438568,239.554611 57.874035,240.103928 57.007332,240.721680 
z"/>
<path fill="#0F011E" opacity="1.000000" stroke="none" 
	d="
M18.180918,222.150055 
	C18.654234,222.391708 19.223198,222.918304 19.891830,223.724792 
	C19.419853,223.481461 18.848209,222.958237 18.180918,222.150055 
z"/>
<path fill="#0F011E" opacity="1.000000" stroke="none" 
	d="
M14.200775,217.115906 
	C14.674999,217.363220 15.237256,217.900406 15.896317,218.720215 
	C15.425014,218.470474 14.856911,217.938126 14.200775,217.115906 
z"/>
<path fill="#0A0016" opacity="1.000000" stroke="none" 
	d="
M33.915352,223.724747 
	C38.650082,228.085800 43.780750,231.895554 50.673763,232.143829 
	C55.285149,232.309937 59.508766,231.143387 62.965034,227.265961 
	C65.219154,226.268097 66.084534,226.862167 65.193787,228.975311 
	C64.698013,230.151459 63.891872,231.196777 63.070442,232.589508 
	C51.285130,238.514221 44.494080,237.268570 34.149414,227.364319 
	C33.596832,226.588577 33.469666,226.031769 33.687347,224.992432 
	C33.811440,224.374741 33.824600,224.186142 33.915352,223.724747 
z"/>
<path fill="#0B0018" opacity="1.000000" stroke="none" 
	d="
M52.249573,226.161804 
	C51.456821,226.168030 51.042866,226.122604 50.317242,226.052078 
	C47.404942,224.009415 44.744057,222.063522 42.226654,219.946976 
	C40.755650,218.710205 39.137943,217.365860 40.144394,214.302658 
	C46.990913,219.682587 53.404099,226.164902 63.377052,221.666534 
	C60.788452,226.607498 56.508549,225.833893 52.249573,226.161804 
z"/>
<path fill="#120025" opacity="1.000000" stroke="none" 
	d="
M68.660202,213.933960 
	C68.686478,213.579346 68.665840,213.252579 68.648636,213.089783 
	C68.660896,212.450638 68.870682,212.084213 69.623909,211.911697 
	C72.874641,216.571609 68.573662,217.892593 66.412605,220.193222 
	C65.745773,217.642624 68.696487,216.577499 68.660202,213.933960 
z"/>
<path fill="#5E01A1" opacity="1.000000" stroke="none" 
	d="
M70.108505,211.703217 
	C69.653717,212.175140 69.350021,212.372604 68.838882,212.748535 
	C67.620476,212.631638 66.609512,212.336288 65.278931,212.011414 
	C64.382690,211.186279 63.806076,210.390686 63.119678,209.320038 
	C63.504681,207.520157 64.554771,206.844925 66.457451,207.094284 
	C67.151970,207.375092 67.530815,207.563873 68.169815,207.908539 
	C68.786049,208.242630 69.141426,208.422302 69.735809,208.772675 
	C70.316803,209.202713 70.661171,209.457397 71.272789,209.890793 
	C71.113235,210.522583 70.686424,210.975662 70.108505,211.703217 
z"/>
<path fill="#18012F" opacity="1.000000" stroke="none" 
	d="
M21.142826,160.835968 
	C23.879055,161.508820 23.554214,164.344971 24.461395,166.891312 
	C21.963068,166.027283 21.621696,163.610199 21.142826,160.835968 
z"/>
<path fill="#05000E" opacity="1.000000" stroke="none" 
	d="
M70.979645,223.967346 
	C70.957619,223.943665 71.133698,223.970139 71.091125,224.002823 
	C71.048561,224.035507 71.001663,223.991013 70.979645,223.967346 
z"/>
<path fill="#7005BE" opacity="1.000000" stroke="none" 
	d="
M72.378014,205.187286 
	C72.161743,206.763626 70.801613,206.816269 69.199928,207.117569 
	C68.706032,207.354294 68.539055,207.495560 68.067833,207.761734 
	C67.544220,207.903366 67.324860,207.920090 66.777771,207.890808 
	C65.383369,207.491302 64.243958,207.583267 62.846458,207.186249 
	C62.318050,206.971420 62.107624,206.878693 61.618141,206.578674 
	C59.979485,204.678253 57.504459,203.619095 58.043381,200.442657 
	C41.855915,175.036514 38.666565,146.389709 35.123474,117.423012 
	C35.249069,116.817421 35.328453,116.642799 35.243172,116.232246 
	C33.153149,101.057632 31.768362,86.077599 31.708920,70.542831 
	C32.126595,67.263336 32.089108,64.440620 31.734966,61.275951 
	C30.972885,55.366653 31.006437,49.784615 31.677582,43.826492 
	C34.376213,42.023857 34.761238,42.108952 34.870674,45.148430 
	C35.108978,51.767139 35.091171,58.395031 35.182209,65.019112 
	C35.209522,67.006226 35.250629,68.993156 35.353958,71.437531 
	C36.485874,74.951286 35.868233,78.096115 35.844414,81.627861 
	C36.217102,89.423103 36.657642,96.796631 37.192757,104.568924 
	C39.173183,108.089523 39.751511,111.644386 39.595619,115.101082 
	C39.433620,118.693275 40.237694,121.778366 42.218681,125.153580 
	C42.555347,126.732651 42.069824,127.906075 42.516228,129.472900 
	C42.692184,131.036041 43.419361,131.926239 43.919670,133.346466 
	C44.491024,139.366852 46.289585,144.696640 47.544010,150.147583 
	C48.906139,156.066574 49.043221,162.176758 50.118553,168.139679 
	C50.858189,172.241119 51.132362,176.683395 55.838200,179.245697 
	C58.119904,184.835175 59.817791,190.251663 62.436386,195.689987 
	C62.285152,197.919189 63.162331,199.300171 64.693367,200.761642 
	C65.406876,201.371841 65.878372,201.719162 66.610306,202.201874 
	C68.214859,203.975693 70.133095,204.547775 72.378014,205.187286 
z"/>
<path fill="#18012F" opacity="1.000000" stroke="none" 
	d="
M57.737968,200.312653 
	C59.435009,201.711731 60.944374,203.318130 62.634560,205.210068 
	C62.667755,206.618958 61.872173,206.788712 60.517570,206.799820 
	C58.792900,205.892807 57.496445,204.951950 56.099411,203.663422 
	C56.515991,202.383820 57.033146,201.451889 57.737968,200.312653 
z"/>
<path fill="#6207A5" opacity="1.000000" stroke="none" 
	d="
M30.406013,15.338642 
	C32.837994,18.562082 31.899765,22.443136 31.104630,26.661713 
	C30.774347,27.134644 30.628756,27.248756 30.292820,27.160973 
	C30.156334,23.234900 30.210194,19.510723 30.406013,15.338642 
z"/>
<path fill="#6207A5" opacity="1.000000" stroke="none" 
	d="
M31.533022,61.359203 
	C33.641518,63.643917 33.126801,66.519806 31.992989,69.753372 
	C30.947432,67.347710 31.375877,64.557335 31.533022,61.359203 
z"/>
<path fill="#18012F" opacity="1.000000" stroke="none" 
	d="
M29.923035,27.230776 
	C30.102476,26.959078 30.512318,26.974901 30.716129,26.997717 
	C30.855520,28.438393 30.791100,29.856253 30.601719,31.681599 
	C28.928368,30.768660 29.014929,29.186886 29.923035,27.230776 
z"/>
<path fill="#6207A5" opacity="1.000000" stroke="none" 
	d="
M35.040634,116.250793 
	C35.293888,116.205971 35.369858,116.457283 35.238052,116.871147 
	C35.114048,116.829781 35.058407,116.667534 35.040634,116.250793 
z"/>
<path fill="#6901B4" opacity="1.000000" stroke="none" 
	d="
M51.424904,20.157593 
	C52.134434,21.730032 52.106239,23.794041 54.490967,24.928558 
	C57.322136,26.321960 56.922585,28.801590 57.314888,31.434090 
	C53.245834,41.265038 53.264568,51.068104 54.118492,61.459839 
	C52.569862,75.862617 51.840603,89.821526 51.470310,104.281403 
	C51.598061,107.132225 51.604446,109.504471 51.662796,112.338165 
	C52.064091,116.451454 53.875359,119.995781 52.239372,124.130821 
	C47.750286,126.711227 47.281223,123.551003 46.283600,120.386261 
	C45.455196,99.096573 46.597931,78.209480 47.167351,57.321259 
	C47.478519,45.906693 49.057652,34.525410 50.130348,23.135269 
	C50.218422,22.200058 50.810093,21.312275 51.424904,20.157593 
z"/>
<path fill="#6503AD" opacity="1.000000" stroke="none" 
	d="
M41.107502,129.853821 
	C40.650364,129.048721 40.315868,128.538132 39.970367,127.791794 
	C40.332256,122.178375 39.307339,116.854607 39.325432,111.483467 
	C39.331051,109.816635 38.880932,108.175903 40.108421,106.284912 
	C40.102760,99.527664 39.943424,93.164948 39.921425,86.391220 
	C43.583969,91.109100 42.378445,97.155937 42.714413,102.705727 
	C43.194138,110.630257 43.566936,118.583778 44.005241,126.523872 
	C44.095345,128.156158 43.904125,129.951157 46.317413,130.736221 
	C49.638218,133.478500 49.244545,137.285538 49.839054,140.684189 
	C50.290039,143.262360 50.670052,145.814728 51.968670,148.553864 
	C52.531273,151.281509 52.837845,153.683670 53.173630,156.498444 
	C53.487907,157.400925 53.840454,157.859848 53.893387,158.734406 
	C53.930477,160.081223 53.982185,161.143066 54.039032,162.603561 
	C52.913296,167.913925 55.347515,172.483627 55.488644,177.292068 
	C55.518925,178.323761 56.040913,179.369995 55.255432,180.748169 
	C51.265106,178.963715 50.152405,175.282715 48.921684,171.626816 
	C46.197540,163.534607 46.495815,154.867172 44.068123,146.711426 
	C42.886208,142.740799 42.085011,138.656830 41.088676,134.215363 
	C41.812229,132.618195 41.557266,131.384888 41.107502,129.853821 
z"/>
<path fill="#6503AD" opacity="1.000000" stroke="none" 
	d="
M46.003899,120.391205 
	C47.949341,120.637611 47.929928,123.297417 50.272041,123.902649 
	C54.538754,126.409485 53.352848,129.731171 51.870556,133.490936 
	C51.632370,135.998123 51.680519,138.068985 51.720932,140.531586 
	C49.229656,142.512238 48.737068,141.147675 48.442005,138.916489 
	C47.932796,135.066040 47.692669,131.197433 47.150482,126.934982 
	C45.742886,124.761864 46.019104,122.743111 46.003899,120.391205 
z"/>
<path fill="#530290" opacity="1.000000" stroke="none" 
	d="
M46.896133,126.970581 
	C48.241096,129.599304 48.786278,132.824005 49.043232,136.117340 
	C49.180183,137.872665 48.857910,139.855499 51.384140,140.822510 
	C52.480453,143.322220 52.881470,145.756363 52.322464,148.576401 
	C49.618214,148.809906 49.033882,146.922180 48.724400,144.882614 
	C48.059372,140.499924 47.457954,136.107559 46.746323,131.269012 
	C46.722347,129.681412 46.782543,128.543945 46.896133,126.970581 
z"/>
<path fill="#18012F" opacity="1.000000" stroke="none" 
	d="
M39.701866,85.704178 
	C36.932014,78.307281 37.857166,70.367165 39.262421,62.159081 
	C39.626675,69.678787 39.735371,77.461235 39.701866,85.704178 
z"/>
<path fill="#18012F" opacity="1.000000" stroke="none" 
	d="
M40.189125,38.641762 
	C38.575871,35.467152 38.659920,31.929337 40.259026,28.141720 
	C41.084526,31.364302 40.686012,34.821564 40.189125,38.641762 
z"/>
<path fill="#18012F" opacity="1.000000" stroke="none" 
	d="
M41.204620,15.642019 
	C39.669964,12.779969 39.563770,9.570855 41.432934,6.154631 
	C42.164242,9.063689 41.783665,12.171770 41.204620,15.642019 
z"/>
<path fill="#0A0016" opacity="1.000000" stroke="none" 
	d="
M24.837967,213.770111 
	C27.095058,216.084183 29.184057,218.700684 31.398884,221.655060 
	C26.923290,221.357635 25.224209,218.210449 24.837967,213.770111 
z"/>
<path fill="#0F011E" opacity="1.000000" stroke="none" 
	d="
M33.628117,224.794266 
	C33.837315,225.125320 33.876347,225.687302 33.936646,226.670624 
	C33.452705,226.484955 33.168083,225.824554 33.628117,224.794266 
z"/>
<path fill="#22013E" opacity="1.000000" stroke="none" 
	d="
M15.139168,178.352600 
	C15.335333,177.978485 15.548904,177.982056 16.087055,177.988068 
	C18.405823,180.508072 20.259081,183.100006 20.834133,186.735199 
	C16.530867,185.947403 15.922962,182.285110 15.139168,178.352600 
z"/>
<path fill="#18012F" opacity="1.000000" stroke="none" 
	d="
M39.878441,105.816422 
	C40.874695,112.968842 42.410072,120.023499 40.385139,127.357544 
	C37.679523,120.490723 37.664314,113.127953 37.196976,105.402069 
	C38.023148,105.225967 38.758968,105.484222 39.878441,105.816422 
z"/>
<path fill="#18012F" opacity="1.000000" stroke="none" 
	d="
M35.993771,81.715096 
	C34.784683,79.004631 35.272671,75.872177 35.325253,72.333054 
	C37.734127,74.886490 37.015747,78.129959 35.993771,81.715096 
z"/>
<path fill="#1B0134" opacity="1.000000" stroke="none" 
	d="
M120.082008,340.333252 
	C120.763031,340.000244 121.519958,340.004120 122.656334,340.012604 
	C123.344231,341.436768 123.652672,342.856323 123.996170,344.638733 
	C123.852036,345.137268 123.672829,345.273010 123.220482,345.210999 
	C121.086037,344.163818 120.620544,342.417908 120.082008,340.333252 
z"/>
<path fill="#18012F" opacity="1.000000" stroke="none" 
	d="
M122.955872,345.386414 
	C123.127876,345.010559 123.308403,345.007843 123.760086,345.003326 
	C124.333549,345.788666 124.635864,346.575806 124.977905,347.680847 
	C124.569054,347.999512 124.120491,348.000275 123.335655,348.000488 
	C122.987724,347.253174 122.976051,346.506378 122.955872,345.386414 
z"/>
<path fill="#120025" opacity="1.000000" stroke="none" 
	d="
M123.267090,339.918579 
	C123.065765,339.561157 123.055046,339.104095 123.050476,338.303650 
	C123.893288,338.428131 124.556419,338.933502 123.267090,339.918579 
z"/>
<path fill="#6503AD" opacity="1.000000" stroke="none" 
	d="
M47.970108,319.328857 
	C47.887333,319.113800 47.938400,318.902344 47.989464,318.690857 
	C48.027626,318.904724 48.065788,319.118561 47.970108,319.328857 
z"/>
<path fill="#18012F" opacity="1.000000" stroke="none" 
	d="
M121.973740,350.432129 
	C122.137154,349.993652 122.308342,349.993439 122.736237,349.993042 
	C126.033890,356.028595 127.028740,362.592926 127.965240,369.591309 
	C125.169083,371.567017 125.413574,368.735291 124.247475,367.288483 
	C123.713936,366.206512 123.425835,365.413666 123.065430,364.312500 
	C122.374405,361.930908 121.900345,359.835083 122.002747,357.325806 
	C121.996239,354.958191 121.988876,352.914246 121.973740,350.432129 
z"/>
<path fill="#1B0134" opacity="1.000000" stroke="none" 
	d="
M124.047867,367.412720 
	C125.142311,367.905914 126.282593,368.812469 127.702408,369.862518 
	C127.985504,370.755615 127.989059,371.505219 127.991913,372.629883 
	C126.002350,375.653107 128.538986,378.664337 127.157303,381.687744 
	C123.599251,377.773193 125.784607,372.402985 124.047867,367.412720 
z"/>
<path fill="#1B0134" opacity="1.000000" stroke="none" 
	d="
M66.031235,45.711647 
	C65.373764,49.068321 64.734261,52.136600 64.076927,55.604580 
	C64.012840,56.590843 63.839401,57.131084 63.313282,57.840111 
	C63.058754,60.123829 62.967850,62.169884 62.829605,64.653336 
	C59.330750,66.849983 59.955894,62.794651 58.097946,61.633709 
	C57.483089,60.318043 57.496319,59.252918 57.191925,57.858494 
	C56.945126,57.002815 56.809605,56.514458 56.678383,55.647324 
	C56.670216,54.551479 56.632774,53.827164 56.668571,52.757675 
	C56.688522,51.960289 56.726349,51.509991 56.803993,50.714500 
	C57.047497,49.472229 57.388004,48.591690 57.118740,47.279308 
	C57.026722,46.179081 57.021519,45.441952 57.349648,44.372208 
	C58.171513,42.727295 58.553402,41.313629 59.151745,39.595436 
	C60.162571,37.852562 60.419117,36.113945 61.861423,34.617058 
	C62.309086,34.245018 62.520000,34.138077 63.085617,34.026993 
	C65.086220,34.797985 64.329590,37.499393 66.772812,37.925842 
	C66.996971,39.699223 66.955620,41.394909 66.908646,43.514423 
	C66.542938,44.389866 66.180344,44.840031 66.031235,45.711647 
z"/>
<path fill="#1B0134" opacity="1.000000" stroke="none" 
	d="
M64.691162,29.774506 
	C65.565742,31.159582 65.010208,31.714212 63.699127,32.013405 
	C62.847775,31.863113 62.529442,31.450720 62.621037,30.399757 
	C63.203274,29.607328 63.733547,29.460331 64.691162,29.774506 
z"/>
<path fill="#35015F" opacity="1.000000" stroke="none" 
	d="
M62.910896,29.836012 
	C63.304386,30.502047 63.324207,30.946999 63.401711,31.720535 
	C63.427540,32.488266 63.395687,32.927410 63.402073,33.694702 
	C63.440311,34.022854 63.097725,33.980511 62.927620,33.951309 
	C60.044350,34.057102 59.708168,33.379112 61.357025,30.132526 
	C61.985920,29.791491 62.261574,29.703211 62.910896,29.836012 
z"/>
<path fill="#2B014D" opacity="1.000000" stroke="none" 
	d="
M63.577957,30.051041 
	C63.081551,30.036949 62.878540,30.016804 62.370499,29.972281 
	C61.909599,29.782879 61.753738,29.617857 61.824135,29.198399 
	C62.786373,28.639322 63.522350,28.334688 64.551132,27.982166 
	C64.896797,28.393431 64.949661,28.852587 65.028191,29.657082 
	C64.659683,30.016609 64.265518,30.030798 63.577957,30.051041 
z"/>
<path fill="#2B014D" opacity="1.000000" stroke="none" 
	d="
M68.254898,9.792818 
	C67.637260,9.284978 67.686180,8.647310 68.678635,8.061863 
	C68.720459,8.494739 68.564232,9.026744 68.254898,9.792818 
z"/>
<path fill="#2B014D" opacity="1.000000" stroke="none" 
	d="
M69.200760,4.782674 
	C68.597755,4.236528 68.711517,3.607610 69.721573,3.067081 
	C69.740273,3.501723 69.554382,4.028977 69.200760,4.782674 
z"/>
<path fill="#1B0134" opacity="1.000000" stroke="none" 
	d="
M121.741882,357.001740 
	C123.058311,359.016235 123.555939,361.136444 123.108917,363.709320 
	C122.547073,364.005524 122.101006,364.006866 121.320053,364.010651 
	C120.986336,361.916260 120.987503,359.819427 120.972710,357.362671 
	C121.131226,357.002258 121.305702,357.001831 121.741882,357.001740 
z"/>
<path fill="#3F016F" opacity="1.000000" stroke="none" 
	d="
M61.692997,28.872738 
	C62.052135,29.111473 62.053875,29.278988 62.060539,29.697203 
	C61.889488,31.202057 61.056107,32.501537 62.539322,33.789230 
	C62.833340,35.597996 62.461723,37.141083 61.172310,38.731049 
	C58.786266,40.859776 57.389500,38.788887 55.482872,37.661774 
	C54.643250,35.701038 55.188904,34.002438 54.898369,31.930798 
	C54.835918,29.635899 54.812386,27.758600 54.795334,25.479734 
	C54.965523,24.527643 55.129242,23.977121 55.199558,23.221375 
	C54.344467,22.263660 54.337574,21.383652 55.069107,20.205040 
	C56.685349,19.954514 57.904423,19.944935 59.482849,19.911686 
	C60.466278,22.838028 56.852230,26.498110 61.692997,28.872738 
z"/>
<path fill="#6901B4" opacity="1.000000" stroke="none" 
	d="
M55.337601,9.062844 
	C56.641495,9.813984 56.641495,9.813984 55.952190,12.503613 
	C54.849922,11.414790 55.147545,10.329091 55.337601,9.062844 
z"/>
<path fill="#6901B4" opacity="1.000000" stroke="none" 
	d="
M55.198708,20.101919 
	C55.349144,20.724607 55.232018,21.485125 55.110523,22.630894 
	C53.373669,22.196213 53.499424,21.259140 55.198708,20.101919 
z"/>
<path fill="#6901B4" opacity="1.000000" stroke="none" 
	d="
M55.160038,16.886663 
	C55.151749,17.039444 55.089684,17.130339 55.027622,17.221233 
	C54.957581,17.141134 54.887539,17.061035 54.817493,16.980938 
	C54.913750,16.928883 55.010006,16.876831 55.160038,16.886663 
z"/>
<path fill="#35015F" opacity="1.000000" stroke="none" 
	d="
M111.375763,365.328491 
	C110.749557,361.597137 112.440376,358.709961 113.754501,355.351868 
	C116.687981,355.736969 116.960945,357.972900 116.997841,360.371948 
	C117.035423,362.815094 116.906853,365.302917 118.758888,367.702087 
	C118.981071,369.376984 118.970154,370.755920 118.954803,372.547180 
	C117.602699,373.682739 117.103256,374.895752 116.965302,376.686035 
	C113.338959,378.693695 113.133713,376.059052 112.739212,373.708527 
	C112.288132,371.020966 113.743111,368.073181 111.375763,365.328491 
z"/>
<path fill="#3F016F" opacity="1.000000" stroke="none" 
	d="
M111.018929,365.409973 
	C114.903519,365.092896 115.773903,367.449860 115.491043,370.644836 
	C115.307373,372.719391 114.426506,374.868927 116.646820,376.829468 
	C116.916809,378.398163 116.902863,379.761719 116.883621,381.534851 
	C115.816597,382.910339 116.229919,384.452637 115.260376,385.786011 
	C115.045059,386.467529 115.043503,386.901123 115.040520,387.659546 
	C114.457382,389.146637 113.875671,390.308929 113.107613,391.739532 
	C111.580025,389.282928 111.080956,386.649445 112.271271,383.567444 
	C113.412117,380.613586 112.405373,378.092957 108.617661,377.156433 
	C108.231415,376.938873 108.178558,376.750824 108.052681,376.278870 
	C108.959862,372.587738 109.940056,369.180450 111.018929,365.409973 
z"/>
<path fill="#35015F" opacity="1.000000" stroke="none" 
	d="
M115.327728,385.849731 
	C115.047333,384.648560 115.119759,383.288208 116.608643,382.136078 
	C116.933731,383.348053 116.879906,384.714417 115.327728,385.849731 
z"/>
<path fill="#2B014D" opacity="1.000000" stroke="none" 
	d="
M58.601387,60.886078 
	C60.795296,61.646381 60.950275,63.699108 62.532986,64.910706 
	C62.763779,65.475220 62.745293,65.859703 62.713638,66.533028 
	C61.425743,68.326469 60.687126,69.918747 61.924500,72.177063 
	C62.009113,73.714500 62.010319,74.902023 61.917267,76.446114 
	C59.280724,79.341911 59.794762,82.403633 60.601654,85.787964 
	C60.767334,86.479088 60.741009,86.864586 60.712208,87.539925 
	C59.615910,89.121216 59.333748,90.556030 59.964474,92.486794 
	C59.975605,93.734695 60.036564,94.656250 59.323196,95.757629 
	C57.711483,98.360275 58.316704,100.786255 58.827538,103.575104 
	C57.673149,105.551300 58.017071,107.434769 58.014095,109.230515 
	C57.998150,118.853584 57.971909,128.476761 58.042641,138.551300 
	C58.329025,142.089371 59.212627,145.137802 58.521442,148.708893 
	C53.355762,147.181381 54.830162,142.563004 54.458775,138.866867 
	C54.253223,136.821243 54.802479,134.819214 51.885006,133.998627 
	C51.325291,130.909073 51.066364,127.890877 50.690601,124.429901 
	C50.542995,120.637421 50.512218,117.287712 50.545952,113.518921 
	C52.055531,110.469551 51.161110,107.591972 51.440186,104.398491 
	C51.548691,91.664886 52.720814,79.434593 53.617409,66.705429 
	C54.225716,63.617435 55.992039,62.036407 58.601387,60.886078 
z"/>
<path fill="#1B0134" opacity="1.000000" stroke="none" 
	d="
M58.230247,138.627991 
	C55.881901,131.901962 57.218422,124.618584 57.109322,117.429260 
	C57.043739,113.107849 55.803696,108.547134 58.600349,104.180969 
	C58.836212,115.383293 59.526863,126.831451 58.230247,138.627991 
z"/>
<path fill="#1B0134" opacity="1.000000" stroke="none" 
	d="
M61.304821,72.224030 
	C57.953388,69.604424 59.340889,68.155670 62.384914,66.907547 
	C62.784492,68.249710 62.868515,69.677559 62.951649,71.531143 
	C62.593468,72.366043 62.146313,72.529770 61.304821,72.224030 
z"/>
<path fill="#1B0134" opacity="1.000000" stroke="none" 
	d="
M60.850967,85.653267 
	C58.182789,83.312202 58.428116,80.375389 60.607208,77.123383 
	C61.321381,77.282379 61.514317,77.760597 61.287857,78.690720 
	C61.036282,81.103706 60.972282,83.158333 60.850967,85.653267 
z"/>
<path fill="#120025" opacity="1.000000" stroke="none" 
	d="
M61.386501,78.830276 
	C61.057632,78.571457 61.014984,78.093826 60.934490,77.256935 
	C60.925457,75.538467 60.954269,74.179268 60.991714,72.410034 
	C61.434223,71.992111 61.868103,71.984222 62.626369,71.966614 
	C62.823677,74.232491 63.599331,76.681473 61.386501,78.830276 
z"/>
<path fill="#1B0134" opacity="1.000000" stroke="none" 
	d="
M59.268463,92.226730 
	C58.017872,90.283203 58.076481,88.855988 60.421028,87.923126 
	C60.781452,88.924988 60.853176,90.020210 60.922314,91.524811 
	C60.568813,92.356697 60.121624,92.528282 59.268463,92.226730 
z"/>
<path fill="#120025" opacity="1.000000" stroke="none" 
	d="
M58.961258,92.407684 
	C59.395420,91.991249 59.832066,91.977966 60.594215,91.949432 
	C60.935333,93.322914 60.891510,94.691551 59.388664,95.846527 
	C59.065742,94.959724 59.014736,93.885269 58.961258,92.407684 
z"/>
<path fill="#120025" opacity="1.000000" stroke="none" 
	d="
M63.343403,57.971886 
	C63.341385,57.542149 63.533112,57.006531 63.891968,56.237595 
	C64.410042,56.772022 64.292938,57.408543 63.343403,57.971886 
z"/>
<path fill="#120025" opacity="1.000000" stroke="none" 
	d="
M66.171036,45.764668 
	C65.618828,45.232189 65.733589,44.600380 66.705933,44.041641 
	C66.711609,44.468605 66.520210,44.998951 66.171036,45.764668 
z"/>
<path fill="#2B014D" opacity="1.000000" stroke="none" 
	d="
M58.869026,156.683136 
	C58.030869,156.579224 57.532368,156.049194 58.549812,155.070587 
	C58.775681,155.418854 58.833961,155.877609 58.869026,156.683136 
z"/>
<path fill="#530290" opacity="1.000000" stroke="none" 
	d="
M55.044220,181.385544 
	C54.024017,177.170532 52.990372,173.324707 52.253967,169.422806 
	C51.865040,167.362030 51.447613,165.094437 53.726833,163.197449 
	C54.479137,163.695724 55.233707,164.359634 55.301079,165.087173 
	C56.296993,175.842087 60.299992,185.838440 63.055092,196.546936 
	C62.897800,197.049133 62.725513,197.155182 62.280293,197.128571 
	C59.723000,191.907776 57.438641,186.819611 55.044220,181.385544 
z"/>
<path fill="#6503AD" opacity="1.000000" stroke="none" 
	d="
M61.903900,197.249878 
	C62.184441,196.989105 62.361526,196.982269 62.804348,196.959259 
	C63.674519,198.085800 64.278954,199.228485 64.909378,200.697845 
	C63.290436,200.385162 61.504711,199.871170 61.903900,197.249878 
z"/>
<path fill="#47017D" opacity="1.000000" stroke="none" 
	d="
M53.990456,158.827820 
	C53.654392,158.506577 53.430012,157.993774 53.204235,157.196014 
	C53.906700,157.275482 54.434086,157.731888 53.990456,158.827820 
z"/>
<path fill="#18012F" opacity="1.000000" stroke="none" 
	d="
M62.864265,206.082611 
	C64.183167,206.221420 65.307289,206.589127 66.790329,206.939529 
	C67.269951,207.085449 67.390663,207.248657 67.719452,207.189545 
	C67.927528,206.967224 68.390915,207.125763 68.631958,207.169403 
	C69.160660,207.639160 69.448326,208.065277 69.854218,208.719727 
	C69.528633,209.056320 69.084831,209.164612 68.307693,209.352905 
	C67.974365,209.432892 67.487312,209.410599 67.244003,209.395386 
	C65.859985,209.229309 64.719269,209.078430 63.294220,208.986282 
	C63.009895,209.044998 62.626652,208.943878 62.428696,208.934616 
	C62.230743,208.925354 62.114765,208.439041 62.092659,208.190048 
	C62.019341,207.305679 62.242466,206.771118 62.864265,206.082611 
z"/>
<path fill="#05010B" opacity="1.000000" stroke="none" 
	d="
M63.021275,205.748444 
	C62.818008,206.377853 62.576977,206.901993 62.203247,207.683594 
	C61.579266,207.662399 61.087986,207.383759 60.343029,206.969391 
	C60.758884,206.474625 61.428413,206.115570 62.456657,205.626068 
	C62.815380,205.495605 62.983509,205.643173 63.021275,205.748444 
z"/>
<path fill="#47017D" opacity="1.000000" stroke="none" 
	d="
M67.113480,209.445618 
	C67.000702,209.380188 67.491837,209.341263 67.733101,209.387085 
	C67.974365,209.432892 67.609001,209.553955 67.609001,209.553955 
	C67.609001,209.553955 67.226257,209.511063 67.113480,209.445618 
z"/>
<path fill="#3F016F" opacity="1.000000" stroke="none" 
	d="
M40.873489,129.976654 
	C42.159462,130.672470 41.980713,131.938828 41.234306,133.528458 
	C40.964626,132.669022 40.863373,131.531509 40.873489,129.976654 
z"/>
<path fill="#5E01A1" opacity="1.000000" stroke="none" 
	d="
M67.734383,206.931290 
	C67.927528,206.967224 67.641365,207.112518 67.641365,207.112518 
	C67.641365,207.112518 67.314514,207.070999 67.231873,206.996613 
	C67.149239,206.922226 67.541237,206.895355 67.734383,206.931290 
z"/>
<path fill="#47017D" opacity="1.000000" stroke="none" 
	d="
M56.333023,65.739731 
	C54.449348,78.639320 53.531441,91.299065 52.908134,104.436691 
	C52.343880,105.561089 51.632107,105.744080 50.482300,105.314117 
	C49.192814,90.544037 51.275459,76.086761 51.459351,61.095398 
	C54.044739,55.738708 53.038990,50.323914 53.932041,45.199493 
	C54.383465,42.609169 54.048016,39.880352 55.739368,37.245136 
	C57.518471,37.611057 58.926464,38.178608 60.637260,38.863777 
	C60.919041,40.676624 60.898010,42.371853 60.852451,44.489555 
	C60.523525,45.393749 60.166527,45.849525 60.078629,46.723175 
	C60.012760,48.050045 59.944111,49.090412 59.839191,50.520157 
	C59.440880,51.450745 59.182171,52.015789 59.493248,52.991795 
	C59.716656,53.715763 59.681911,54.126308 59.332390,54.792412 
	C59.095757,55.478508 59.037384,55.899815 58.938610,56.637550 
	C57.464989,59.601410 57.533791,62.665218 56.333023,65.739731 
z"/>
<path fill="#2B014D" opacity="1.000000" stroke="none" 
	d="
M56.072617,36.640121 
	C55.383057,43.564877 54.658894,50.086613 53.925724,56.607330 
	C53.761536,58.067604 53.762245,59.616856 51.862347,60.506840 
	C52.095608,51.126892 52.075054,41.582981 54.677788,31.901741 
	C55.251221,33.087708 55.642994,34.662220 56.072617,36.640121 
z"/>
<path fill="#35015F" opacity="1.000000" stroke="none" 
	d="
M50.141758,105.525803 
	C50.849148,105.038338 51.534790,104.993011 52.561852,104.918472 
	C52.654869,107.602562 54.101978,110.675697 50.914261,112.964737 
	C50.446983,110.722534 50.283497,108.345230 50.141758,105.525803 
z"/>
<path fill="#35015F" opacity="1.000000" stroke="none" 
	d="
M56.386307,65.860420 
	C56.307751,63.006935 56.295937,59.919888 58.612381,57.152756 
	C58.947296,58.028690 58.996384,59.103401 59.041016,60.580719 
	C57.908653,62.378815 58.207542,64.498650 56.386307,65.860420 
z"/>
<path fill="#2B014D" opacity="1.000000" stroke="none" 
	d="
M59.354824,54.962364 
	C59.093048,54.598145 59.031971,54.139088 58.955811,53.333099 
	C59.134300,52.851009 59.327873,52.715851 59.810173,52.785759 
	C60.451218,53.770847 60.329300,54.413555 59.354824,54.962364 
z"/>
<path fill="#35015F" opacity="1.000000" stroke="none" 
	d="
M60.066074,52.642044 
	C59.906017,52.990875 59.713139,52.990929 59.230492,52.988579 
	C58.581364,52.229183 58.680183,51.589245 59.611107,51.011211 
	C59.879700,51.370781 59.956474,51.832020 60.066074,52.642044 
z"/>
<path fill="#35015F" opacity="1.000000" stroke="none" 
	d="
M60.244652,46.777325 
	C59.570621,46.263500 59.650692,45.626160 60.628929,45.014816 
	C60.687912,45.456341 60.547901,46.000656 60.244652,46.777325 
z"/>
</svg>